<?xml version="1.0" encoding="utf-8"?>
<!-- Generator: Adobe Illustrator 16.0.3, SVG Export Plug-In . SVG Version: 6.00 Build 0)  -->
<!DOCTYPE svg PUBLIC "-//W3C//DTD SVG 1.1//EN" "http://www.w3.org/Graphics/SVG/1.1/DTD/svg11.dtd">
<svg version="1.1" id="Layer_1" xmlns="http://www.w3.org/2000/svg" xmlns:xlink="http://www.w3.org/1999/xlink" x="0px" y="0px"
	 width="80.98px" height="73.801px" viewBox="0 0 80.98 73.801" enable-background="new 0 0 80.98 73.801" xml:space="preserve">
<g>
	<path d="M4.5,9h71.98c2.485,0,4.5-2.015,4.5-4.5S78.967,0,76.481,0H4.5C2.015,0,0,2.015,0,4.5S2.015,9,4.5,9z"/>
	<path d="M76.481,21.644H4.5c-2.485,0-4.5,2.015-4.5,4.5s2.015,4.5,4.5,4.5h71.98c2.485,0,4.5-2.015,4.5-4.5
		S78.967,21.644,76.481,21.644z"/>
	<path d="M76.481,43.223H4.5c-2.485,0-4.5,2.014-4.5,4.5c0,2.484,2.015,4.5,4.5,4.5h71.98c2.485,0,4.5-2.016,4.5-4.5
		C80.981,45.236,78.967,43.223,76.481,43.223z"/>
	<path d="M40.448,64.801H4.77c-2.484,0-4.5,2.014-4.5,4.5c0,2.484,2.016,4.5,4.5,4.5h35.68c2.484,0,4.5-2.016,4.5-4.5
		C44.948,66.814,42.934,64.801,40.448,64.801z"/>
</g>
</svg>
