<?xml version="1.0" encoding="utf-8"?>
<!-- Generator: Adobe Illustrator 16.0.3, SVG Export Plug-In . SVG Version: 6.00 Build 0)  -->
<!DOCTYPE svg PUBLIC "-//W3C//DTD SVG 1.1//EN" "http://www.w3.org/Graphics/SVG/1.1/DTD/svg11.dtd">
<svg version="1.1" id="Layer_1" xmlns="http://www.w3.org/2000/svg" xmlns:xlink="http://www.w3.org/1999/xlink" x="0px" y="0px"
	 width="81.824px" height="74.09px" viewBox="0 0 81.824 74.09" enable-background="new 0 0 81.824 74.09" xml:space="preserve">
<g>
	<path d="M76.48,9.291c2.485,0,4.5-2.015,4.5-4.5s-2.015-4.5-4.5-4.5H4.5c-2.485,0-4.5,2.015-4.5,4.5s2.015,4.5,4.5,4.5H76.48z"/>
	<path d="M76.48,21.934H35.101c-2.485,0-4.5,2.015-4.5,4.5s2.015,4.5,4.5,4.5h41.381c2.484,0,4.5-2.015,4.5-4.5
		S78.967,21.934,76.48,21.934z"/>
	<path d="M76.48,43.513H22.891c-2.485,0-4.5,2.016-4.5,4.5c0,2.485,2.015,4.5,4.5,4.5H76.48c2.485,0,4.5-2.015,4.5-4.5
		S78.967,43.513,76.48,43.513z"/>
	<path d="M76.212,65.09H8.094c-2.485,0-4.5,2.017-4.5,4.5c0,2.486,2.015,4.5,4.5,4.5h68.118c2.485,0,4.5-2.014,4.5-4.5
		C80.712,67.106,78.697,65.09,76.212,65.09z"/>
</g>
</svg>
