<?xml version="1.0" encoding="utf-8"?>
<!-- Generator: Adobe Illustrator 16.0.3, SVG Export Plug-In . SVG Version: 6.00 Build 0)  -->
<!DOCTYPE svg PUBLIC "-//W3C//DTD SVG 1.1//EN" "http://www.w3.org/Graphics/SVG/1.1/DTD/svg11.dtd">
<svg version="1.1" id="Layer_1" xmlns="http://www.w3.org/2000/svg" xmlns:xlink="http://www.w3.org/1999/xlink" x="0px" y="0px"
	 width="80.982px" height="73.8px" viewBox="0 0 80.982 73.8" enable-background="new 0 0 80.982 73.8" xml:space="preserve">
<g>
	<path d="M76.482,0H4.5C2.015,0,0,2.015,0,4.5S2.015,9,4.5,9h71.982c2.484,0,4.5-2.015,4.5-4.5S78.968,0,76.482,0z"/>
	<path d="M4.5,30.644h41.381c2.485,0,4.5-2.015,4.5-4.5s-2.015-4.5-4.5-4.5H4.5c-2.484,0-4.5,2.015-4.5,4.5S2.015,30.644,4.5,30.644
		z"/>
	<path d="M4.5,52.222h53.589c2.485,0,4.5-2.014,4.5-4.5c0-2.484-2.015-4.5-4.5-4.5H4.5c-2.484,0-4.5,2.016-4.5,4.5
		C0,50.208,2.015,52.222,4.5,52.222z"/>
	<path d="M72.889,64.8H4.77c-2.485,0-4.5,2.014-4.5,4.5c0,2.484,2.015,4.5,4.5,4.5h68.119c2.484,0,4.5-2.016,4.5-4.5
		C77.389,66.814,75.374,64.8,72.889,64.8z"/>
</g>
</svg>
