<?xml version="1.0" encoding="utf-8"?>
<!-- Generator: Adobe Illustrator 16.0.3, SVG Export Plug-In . SVG Version: 6.00 Build 0)  -->
<!DOCTYPE svg PUBLIC "-//W3C//DTD SVG 1.1//EN" "http://www.w3.org/Graphics/SVG/1.1/DTD/svg11.dtd">
<svg version="1.1" id="Layer_1" xmlns="http://www.w3.org/2000/svg" xmlns:xlink="http://www.w3.org/1999/xlink" x="0px" y="0px"
	 width="75.633px" height="57.859px" viewBox="0 0 75.633 57.859" enable-background="new 0 0 75.633 57.859" xml:space="preserve">
<path d="M4.5,33.431h55.77L43.52,50.178c-1.758,1.758-1.758,4.606,0,6.364c1.756,1.758,4.607,1.757,6.363,0l24.432-24.431
	c0.845-0.844,1.318-1.987,1.318-3.182s-0.475-2.339-1.318-3.183L49.883,1.318C49.004,0.439,47.854,0,46.701,0
	s-2.305,0.438-3.182,1.317c-1.758,1.759-1.758,4.607,0,6.364L60.27,24.43H4.5c-2.485,0-4.5,2.016-4.5,4.5
	C0,31.416,2.015,33.431,4.5,33.431z"/>
</svg>
