<?xml version="1.0" encoding="utf-8"?>
<!-- Generator: Adobe Illustrator 16.0.3, SVG Export Plug-In . SVG Version: 6.00 Build 0)  -->
<!DOCTYPE svg PUBLIC "-//W3C//DTD SVG 1.1//EN" "http://www.w3.org/Graphics/SVG/1.1/DTD/svg11.dtd">
<svg version="1.1" id="Layer_1" xmlns="http://www.w3.org/2000/svg" xmlns:xlink="http://www.w3.org/1999/xlink" x="0px" y="0px"
	 width="68.596px" height="79.254px" viewBox="0 0 68.596 79.254" enable-background="new 0 0 68.596 79.254" xml:space="preserve">
<path d="M68.596,34.3c0,0.516-0.1,1.035-0.305,1.529c-0.619,1.495-2.077,2.47-3.695,2.47H50.932v36.956c0,2.209-1.791,4-4,4H21.666
	c-2.209,0-4-1.791-4-4V38.299H4c-1.618,0-3.076-0.975-3.695-2.47c-0.621-1.494-0.277-3.216,0.867-4.358L31.47,1.172
	c1.35-1.35,3.465-1.558,5.052-0.497c0.238,0.159,0.454,0.34,0.646,0.539c1.212,1.211,30.257,30.257,30.257,30.257
	C68.19,32.235,68.596,33.259,68.596,34.3z M42.932,71.254V34.299c0-2.209,1.791-4,4-4h8.008L34.299,9.657L13.657,30.299h8.008
	c2.209,0,4,1.791,4,4v36.956L42.932,71.254L42.932,71.254z"/>
</svg>
