<?xml version="1.0" encoding="utf-8"?>
<!-- Generator: Adobe Illustrator 16.0.3, SVG Export Plug-In . SVG Version: 6.00 Build 0)  -->
<!DOCTYPE svg PUBLIC "-//W3C//DTD SVG 1.1//EN" "http://www.w3.org/Graphics/SVG/1.1/DTD/svg11.dtd">
<svg version="1.1" id="Layer_1" xmlns="http://www.w3.org/2000/svg" xmlns:xlink="http://www.w3.org/1999/xlink" x="0px" y="0px"
	 width="57.859px" height="75.633px" viewBox="0 0 57.859 75.633" enable-background="new 0 0 57.859 75.633" xml:space="preserve">
<path d="M24.429,4.5v55.77L7.682,43.52c-1.758-1.758-4.605-1.758-6.364,0c-1.758,1.756-1.757,4.607,0,6.363l24.431,24.432
	c0.844,0.845,1.987,1.318,3.182,1.318s2.339-0.475,3.183-1.318l24.431-24.432c0.879-0.879,1.317-2.029,1.317-3.182
	s-0.438-2.305-1.317-3.182c-1.758-1.759-4.607-1.759-6.364,0L33.43,60.27V4.5c0-2.485-2.016-4.5-4.5-4.5
	C26.444,0,24.429,2.015,24.429,4.5z"/>
</svg>
