<?xml version="1.0" encoding="utf-8"?>
<!-- Generator: Adobe Illustrator 16.0.3, SVG Export Plug-In . SVG Version: 6.00 Build 0)  -->
<!DOCTYPE svg PUBLIC "-//W3C//DTD SVG 1.1//EN" "http://www.w3.org/Graphics/SVG/1.1/DTD/svg11.dtd">
<svg version="1.1" id="Layer_1" xmlns="http://www.w3.org/2000/svg" xmlns:xlink="http://www.w3.org/1999/xlink" x="0px" y="0px"
	 width="75.633px" height="57.859px" viewBox="0 0 75.633 57.859" enable-background="new 0 0 75.633 57.859" xml:space="preserve">
<path d="M71.133,24.43H15.364L32.113,7.682c1.758-1.757,1.758-4.605,0-6.364c-1.756-1.758-4.607-1.757-6.363,0L1.318,25.748
	C0.475,26.591,0,27.736,0,28.93s0.475,2.338,1.318,3.182L25.75,56.542c0.879,0.879,2.03,1.317,3.182,1.317
	c1.152,0,2.304-0.438,3.182-1.317c1.758-1.758,1.758-4.607,0-6.364L15.364,33.43h55.769c2.485,0,4.5-2.016,4.5-4.5
	C75.633,26.444,73.618,24.43,71.133,24.43z"/>
</svg>
