<?xml version="1.0" encoding="utf-8"?>
<!-- Generator: Adobe Illustrator 16.0.3, SVG Export Plug-In . SVG Version: 6.00 Build 0)  -->
<!DOCTYPE svg PUBLIC "-//W3C//DTD SVG 1.1//EN" "http://www.w3.org/Graphics/SVG/1.1/DTD/svg11.dtd">
<svg version="1.1" id="Layer_1" xmlns="http://www.w3.org/2000/svg" xmlns:xlink="http://www.w3.org/1999/xlink" x="0px" y="0px"
	 width="79.253px" height="68.596px" viewBox="0 0 79.253 68.596" enable-background="new 0 0 79.253 68.596" xml:space="preserve">
<path d="M34.299,68.596c-1.041,0-2.064-0.406-2.829-1.171c0,0-29.031-29.03-30.257-30.255c-0.198-0.193-0.38-0.41-0.539-0.648
	c-1.061-1.587-0.853-3.702,0.497-5.052L31.47,1.172c1.143-1.145,2.865-1.487,4.358-0.867c1.495,0.619,2.47,2.078,2.47,3.695v13.665
	h36.956c2.209,0,4,1.791,4,4v25.267c0,2.209-1.791,4-4,4H38.298v13.664c0,1.618-0.975,3.076-2.47,3.695
	C35.334,68.497,34.814,68.596,34.299,68.596z M9.657,34.299L30.298,54.94v-8.008c0-2.209,1.791-4,4-4h36.956V25.666H34.298
	c-2.209,0-4-1.791-4-4v-8.008L9.657,34.299z"/>
</svg>
