<?xml version="1.0" encoding="utf-8"?>
<!-- Generator: Adobe Illustrator 16.0.3, SVG Export Plug-In . SVG Version: 6.00 Build 0)  -->
<!DOCTYPE svg PUBLIC "-//W3C//DTD SVG 1.1//EN" "http://www.w3.org/Graphics/SVG/1.1/DTD/svg11.dtd">
<svg version="1.1" id="Layer_1" xmlns="http://www.w3.org/2000/svg" xmlns:xlink="http://www.w3.org/1999/xlink" x="0px" y="0px"
	 width="68.596px" height="79.254px" viewBox="0 0 68.596 79.254" enable-background="new 0 0 68.596 79.254" xml:space="preserve">
<path d="M0,44.956c0-0.517,0.1-1.035,0.305-1.529C0.924,41.931,2.382,40.956,4,40.956h13.664V4c0-2.209,1.791-4,4-4h25.267
	c2.209,0,4,1.791,4,4v36.956h13.665c1.617,0,3.076,0.976,3.695,2.471c0.62,1.494,0.275,3.216-0.867,4.357L37.126,78.083
	c-1.351,1.351-3.465,1.559-5.052,0.498c-0.238-0.16-0.454-0.34-0.646-0.539C30.216,76.831,1.171,47.784,1.171,47.784
	C0.406,47.02,0,45.997,0,44.956z M25.664,8v36.956c0,2.209-1.791,4-4,4h-8.009l20.642,20.643l20.641-20.643H46.93
	c-2.209,0-4-1.791-4-4V8H25.664z"/>
</svg>
