<?xml version="1.0" encoding="utf-8"?>
<!-- Generator: Adobe Illustrator 16.0.3, SVG Export Plug-In . SVG Version: 6.00 Build 0)  -->
<!DOCTYPE svg PUBLIC "-//W3C//DTD SVG 1.1//EN" "http://www.w3.org/Graphics/SVG/1.1/DTD/svg11.dtd">
<svg version="1.1" id="Layer_1" xmlns="http://www.w3.org/2000/svg" xmlns:xlink="http://www.w3.org/1999/xlink" x="0px" y="0px"
	 width="79.254px" height="68.598px" viewBox="0 0 79.254 68.598" enable-background="new 0 0 79.254 68.598" xml:space="preserve">
<path d="M44.954,68.597c-0.517,0-1.035-0.101-1.529-0.306c-1.495-0.619-2.47-2.077-2.47-3.694V50.933H4c-2.209,0-4-1.791-4-4V21.666
	c0-2.209,1.791-4,4-4h36.955V4.001c0-1.618,0.975-3.076,2.47-3.694c1.494-0.621,3.216-0.277,4.358,0.866l30.299,30.299
	c1.35,1.35,1.559,3.465,0.497,5.052c-0.159,0.237-0.341,0.454-0.539,0.646c-1.211,1.212-30.257,30.257-30.257,30.257
	C47.02,68.19,45.995,68.597,44.954,68.597z M8,42.933h36.955c2.209,0,4,1.791,4,4v8.008L69.598,34.3L48.955,13.658v8.008
	c0,2.209-1.791,4-4,4H8V42.933z"/>
</svg>
