<?xml version="1.0" encoding="utf-8"?>
<!-- Generator: Adobe Illustrator 16.0.3, SVG Export Plug-In . SVG Version: 6.00 Build 0)  -->
<!DOCTYPE svg PUBLIC "-//W3C//DTD SVG 1.1//EN" "http://www.w3.org/Graphics/SVG/1.1/DTD/svg11.dtd">
<svg version="1.1" id="Layer_1" xmlns="http://www.w3.org/2000/svg" xmlns:xlink="http://www.w3.org/1999/xlink" x="0px" y="0px"
	 width="57.859px" height="75.633px" viewBox="0 0 57.859 75.633" enable-background="new 0 0 57.859 75.633" xml:space="preserve">
<path d="M33.431,71.133V15.364l16.747,16.749c1.758,1.758,4.606,1.758,6.364,0c1.758-1.756,1.757-4.607,0-6.363L32.112,1.318
	C31.269,0.475,30.124,0,28.931,0c-1.194,0-2.339,0.475-3.183,1.318L1.318,25.75C0.439,26.629,0,27.78,0,28.932
	s0.438,2.304,1.317,3.182c1.759,1.758,4.607,1.758,6.364,0l16.748-16.75v55.769c0,2.485,2.016,4.5,4.5,4.5
	C31.416,75.633,33.431,73.618,33.431,71.133z"/>
</svg>
