<?xml version="1.0" encoding="utf-8"?>
<!-- Generator: Adobe Illustrator 16.0.3, SVG Export Plug-In . SVG Version: 6.00 Build 0)  -->
<!DOCTYPE svg PUBLIC "-//W3C//DTD SVG 1.1//EN" "http://www.w3.org/Graphics/SVG/1.1/DTD/svg11.dtd">
<svg version="1.1" id="Layer_1" xmlns="http://www.w3.org/2000/svg" xmlns:xlink="http://www.w3.org/1999/xlink" x="0px" y="0px"
	 width="83.91px" height="89.773px" viewBox="0 0 83.91 89.773" enable-background="new 0 0 83.91 89.773" xml:space="preserve">
<path d="M82.792,33.163c-2.487-2.486-4.949,0-4.949,0L36.227,74.778c-6.497,6.496-13.432,9.177-19.508,7.548
	c-4.489-1.203-7.922-4.732-9.185-9.443c-1.724-6.434,0.82-13.656,6.979-19.816L58.171,9.407c4.113-4.113,9.52-2.456,12.804,0.825
	c1.756,1.757,2.819,3.883,2.993,5.986c0.189,2.294-0.691,4.437-2.62,6.365L27.32,66.612c-2.579,2.578-5.002,2.943-5.97,1.974
	c-0.936-0.937-0.539-3.322,2.04-5.902l28.43-28.429c1.367-1.366,1.367-3.583,0-4.949c-1.367-1.367-3.582-1.367-4.949,0
	l-28.43,28.429c-5.856,5.857-5.459,12.384-2.04,15.802c3.452,3.453,10.011,3.885,15.868-1.974l44.027-44.027
	c3.404-3.402,5.011-7.516,4.647-11.894c-0.312-3.753-2.094-7.432-5.021-10.356C70.221-0.42,60.328-2.648,53.222,4.458L9.565,48.116
	c-7.976,7.975-11.18,17.661-8.792,26.577c1.917,7.154,7.201,12.535,14.134,14.394c1.722,0.461,3.486,0.688,5.278,0.688
	c7.029,0,14.441-3.496,20.991-10.047l41.615-41.616C82.792,38.112,85.305,35.675,82.792,33.163z"/>
</svg>
