<?xml version="1.0" encoding="utf-8"?>
<!-- Generator: Adobe Illustrator 16.0.3, SVG Export Plug-In . SVG Version: 6.00 Build 0)  -->
<!DOCTYPE svg PUBLIC "-//W3C//DTD SVG 1.1//EN" "http://www.w3.org/Graphics/SVG/1.1/DTD/svg11.dtd">
<svg version="1.1" id="Layer_1" xmlns="http://www.w3.org/2000/svg" xmlns:xlink="http://www.w3.org/1999/xlink" x="0px" y="0px"
	 width="90.801px" height="81.422px" viewBox="0 0 90.801 81.422" enable-background="new 0 0 90.801 81.422" xml:space="preserve">
<g>
	<path d="M26.331,22.533c2.762,0,5-2.238,5-5V5c0-2.762-2.238-5-5-5c-2.762,0-5,2.238-5,5v12.533
		C21.331,20.295,23.569,22.533,26.331,22.533z"/>
	<path d="M64.523,22.533c2.763,0,5-2.238,5-5V5c0-2.762-2.237-5-5-5c-2.762,0-5,2.238-5,5v12.533
		C59.523,20.295,61.764,22.533,64.523,22.533z"/>
	<path d="M86.801,7.234h-9.216c-2.209,0-4,1.791-4,4s1.791,4,4,4h5.216v16.244H8V15.234h5.216c2.209,0,4-1.791,4-4s-1.791-4-4-4H4
		c-2.209,0-4,1.791-4,4v66.188c0,2.209,1.791,4,4,4h82.801c2.209,0,4-1.791,4-4V11.234C90.801,9.025,89.01,7.234,86.801,7.234z
		 M8,73.422V37.479h74.801v35.945H8V73.422z"/>
	<path d="M39.179,15.234h12.443c2.209,0,4-1.791,4-4s-1.791-4-4-4H39.179c-2.209,0-4,1.791-4,4S36.97,15.234,39.179,15.234z"/>
</g>
</svg>
