<?xml version="1.0" encoding="utf-8"?>
<!-- Generator: Adobe Illustrator 16.0.3, SVG Export Plug-In . SVG Version: 6.00 Build 0)  -->
<!DOCTYPE svg PUBLIC "-//W3C//DTD SVG 1.1//EN" "http://www.w3.org/Graphics/SVG/1.1/DTD/svg11.dtd">
<svg version="1.1" id="Layer_1" xmlns="http://www.w3.org/2000/svg" xmlns:xlink="http://www.w3.org/1999/xlink" x="0px" y="0px"
	 width="90.801px" height="75.912px" viewBox="0 0 90.801 75.912" enable-background="new 0 0 90.801 75.912" xml:space="preserve">
<g>
	<path d="M45.4,19.407c-12.499,0-22.668,10.168-22.668,22.667c0,12.5,10.169,22.668,22.668,22.668
		c12.499,0,22.668-10.168,22.668-22.668C68.068,29.575,57.898,19.407,45.4,19.407z M45.4,56.742c-8.088,0-14.668-6.58-14.668-14.668
		c0-8.086,6.58-14.667,14.668-14.667c8.088,0,14.668,6.58,14.668,14.667C60.068,50.162,53.488,56.742,45.4,56.742z"/>
	<path d="M49.463,30.919c-2.023-0.887-4.383,0.039-5.268,2.063c-0.885,2.024,0.038,4.383,2.063,5.268
		c0.03,0.014,3.057,1.444,2.743,3.767c-0.296,2.188,1.239,4.202,3.429,4.498c0.182,0.024,0.361,0.036,0.541,0.036
		c1.971,0,3.688-1.457,3.959-3.465C57.825,36.45,52.657,32.316,49.463,30.919z"/>
	<path d="M45.98,45.985c-1.049,0-2.08,0.421-2.83,1.171c-0.74,0.739-1.17,1.77-1.17,2.829c0,1.05,0.43,2.08,1.17,2.818
		c0.74,0.75,1.78,1.182,2.83,1.182c1.051,0,2.08-0.432,2.83-1.182c0.74-0.738,1.17-1.77,1.17-2.818c0-1.051-0.43-2.09-1.17-2.829
		C48.063,46.406,47.031,45.985,45.98,45.985z"/>
	<path d="M86.801,18.3H71.682L67.465,2.941C66.986,1.204,65.409,0,63.607,0H27.193c-1.802,0-3.381,1.204-3.857,2.941L19.12,18.3H4
		c-2.209,0-4,1.791-4,4v49.612c0,2.209,1.791,4,4,4h82.801c2.209,0,4-1.791,4-4V22.3C90.801,20.091,89.01,18.3,86.801,18.3z
		 M82.801,67.912H8V26.3h14.17c1.802,0,3.381-1.204,3.857-2.941L30.243,8h30.313l4.217,15.358c0.479,1.737,2.057,2.941,3.857,2.941
		H82.8L82.801,67.912L82.801,67.912z"/>
</g>
</svg>
