<?xml version="1.0" encoding="utf-8"?>
<!-- Generator: Adobe Illustrator 16.0.3, SVG Export Plug-In . SVG Version: 6.00 Build 0)  -->
<!DOCTYPE svg PUBLIC "-//W3C//DTD SVG 1.1//EN" "http://www.w3.org/Graphics/SVG/1.1/DTD/svg11.dtd">
<svg version="1.1" id="Layer_1" xmlns="http://www.w3.org/2000/svg" xmlns:xlink="http://www.w3.org/1999/xlink" x="0px" y="0px"
	 width="95.398px" height="80.643px" viewBox="0 0 95.398 80.643" enable-background="new 0 0 95.398 80.643" xml:space="preserve">
<path d="M94.081,29.284c-1.758-1.758-4.606-1.757-6.364,0l-7.26,7.261C78.547,16.077,61.279,0,40.32,0C18.088,0,0,18.088,0,40.321
	S18.088,80.642,40.32,80.642c8.197,0,16.088-2.445,22.815-7.072c2.048-1.407,2.566-4.209,1.158-6.257
	c-1.407-2.048-4.208-2.566-6.258-1.159c-5.222,3.59-11.349,5.488-17.717,5.488C23.05,71.642,9,57.591,9,40.321
	C9,23.051,23.05,9,40.32,9c16.549,0,30.132,12.903,31.237,29.176l-8.89-8.892c-1.758-1.758-4.606-1.757-6.364,0
	s-1.758,4.606-0.001,6.364L72.01,51.357c0.845,0.844,1.989,1.317,3.183,1.317c1.194,0,2.338-0.475,3.184-1.317l15.707-15.709
	C95.839,33.891,95.839,31.042,94.081,29.284z"/>
</svg>
