<?xml version="1.0" encoding="utf-8"?>
<!-- Generator: Adobe Illustrator 16.0.3, SVG Export Plug-In . SVG Version: 6.00 Build 0)  -->
<!DOCTYPE svg PUBLIC "-//W3C//DTD SVG 1.1//EN" "http://www.w3.org/Graphics/SVG/1.1/DTD/svg11.dtd">
<svg version="1.1" id="Layer_1" xmlns="http://www.w3.org/2000/svg" xmlns:xlink="http://www.w3.org/1999/xlink" x="0px" y="0px"
	 width="97.986px" height="67.465px" viewBox="0 0 97.986 67.465" enable-background="new 0 0 97.986 67.465" xml:space="preserve">
<g>
	<path d="M82.324,26.716c0.283-4.615-0.907-8.795-3.482-12.043c-2.979-3.758-7.536-5.912-12.504-5.912
		c-3.115,0-6.17,0.848-8.917,2.439C52.298,4.027,45.078,0,37.084,0c-7.899,0-15.496,4.039-19.822,10.54
		c-3.492,5.247-4.513,11.367-2.996,17.57C2.251,33.365-0.913,43.35,0.211,50.82c1.44,9.578,9.213,16.531,18.47,16.531
		c0.354,0,35.826,0.113,57.316,0.113c14.135,0,21.28-9.922,21.938-19.143C98.539,39.861,93.839,30.052,82.324,26.716z
		 M89.956,47.754c-0.416,5.828-4.894,11.711-13.958,11.711c-21.478,0-56.937-0.113-57.305-0.113c-5.98,0-9.845-4.891-10.571-9.721
		c-1.034-6.879,3.571-12.594,12.319-15.285c1.079-0.332,1.967-1.104,2.445-2.127c0.479-1.021,0.504-2.199,0.067-3.24
		c-2.08-4.971-1.737-9.944,0.966-14.006C26.784,10.672,31.828,8,37.084,8c6.396,0,11.976,3.872,15.707,10.902
		c0.591,1.112,1.672,1.882,2.917,2.076c1.241,0.193,2.508-0.209,3.41-1.089c2.067-2.019,4.631-3.129,7.219-3.129
		c2.511,0,4.783,1.051,6.235,2.883c1.785,2.251,2.255,5.46,1.36,9.281c-0.257,1.093-0.041,2.241,0.592,3.168
		c0.632,0.927,1.625,1.544,2.734,1.705C86.622,35.139,90.382,41.773,89.956,47.754z"/>
	<path d="M35.656,12.015c-8.231,0.726-10.744,7.292-10.425,11.528c0.139,1.838,1.673,3.236,3.485,3.236
		c0.09,0,0.179-0.003,0.269-0.01c1.927-0.146,3.372-1.826,3.227-3.754c-0.063-0.855,0.037-3.674,4.061-4.028
		c1.925-0.17,3.349-1.868,3.179-3.794C39.281,13.269,37.583,11.835,35.656,12.015z"/>
</g>
</svg>
