<?xml version="1.0" encoding="utf-8"?>
<!-- Generator: Adobe Illustrator 16.0.3, SVG Export Plug-In . SVG Version: 6.00 Build 0)  -->
<!DOCTYPE svg PUBLIC "-//W3C//DTD SVG 1.1//EN" "http://www.w3.org/Graphics/SVG/1.1/DTD/svg11.dtd">
<svg version="1.1" id="Layer_1" xmlns="http://www.w3.org/2000/svg" xmlns:xlink="http://www.w3.org/1999/xlink" x="0px" y="0px"
	 width="83.432px" height="57.859px" viewBox="0 0 83.432 57.859" enable-background="new 0 0 83.432 57.859" xml:space="preserve">
<g>
	<path d="M54.5,57.86c-1.151,0-2.305-0.438-3.183-1.317c-1.758-1.758-1.758-4.607,0-6.364L72.567,28.93L51.318,7.682
		c-1.758-1.757-1.758-4.605,0-6.364c1.757-1.758,4.605-1.757,6.363,0l24.432,24.431c0.845,0.844,1.318,1.988,1.318,3.182
		c0,1.194-0.475,2.338-1.318,3.182L57.681,56.542C56.804,57.42,55.651,57.86,54.5,57.86z"/>
	<path d="M28.932,57.86c-1.151,0-2.303-0.438-3.182-1.317L1.318,32.112C0.475,31.268,0,30.124,0,28.93
		c0-1.193,0.475-2.338,1.317-3.182L25.75,1.318c1.756-1.757,4.606-1.757,6.362,0c1.759,1.758,1.759,4.606,0,6.364L10.864,28.93
		l21.249,21.248c1.759,1.757,1.759,4.606,0,6.364C31.235,57.42,30.083,57.86,28.932,57.86z"/>
</g>
</svg>
