<?xml version="1.0" encoding="utf-8"?>
<!-- Generator: Adobe Illustrator 16.0.3, SVG Export Plug-In . SVG Version: 6.00 Build 0)  -->
<!DOCTYPE svg PUBLIC "-//W3C//DTD SVG 1.1//EN" "http://www.w3.org/Graphics/SVG/1.1/DTD/svg11.dtd">
<svg version="1.1" id="Layer_1" xmlns="http://www.w3.org/2000/svg" xmlns:xlink="http://www.w3.org/1999/xlink" x="0px" y="0px"
	 width="62.4px" height="62.4px" viewBox="0 0 62.4 62.4" enable-background="new 0 0 62.4 62.4" xml:space="preserve">
<path d="M39.685,31.201l20.958-20.958c2.344-2.343,2.344-6.142,0-8.485c-2.343-2.343-6.144-2.343-8.484,0L31.2,22.715L10.242,1.757
	C7.9-0.585,4.1-0.585,1.758,1.757c-2.344,2.344-2.344,6.143,0,8.485L22.716,31.2L1.758,52.158c-2.344,2.344-2.344,6.143,0,8.484
	C2.929,61.814,4.465,62.4,6,62.4s3.071-0.586,4.242-1.758L31.2,39.685l20.958,20.957c1.171,1.172,2.707,1.758,4.242,1.758
	s3.071-0.586,4.242-1.758c2.344-2.343,2.344-6.142,0-8.484L39.685,31.201z"/>
</svg>
