<?xml version="1.0" encoding="utf-8"?>
<!-- Generator: Adobe Illustrator 16.0.3, SVG Export Plug-In . SVG Version: 6.00 Build 0)  -->
<!DOCTYPE svg PUBLIC "-//W3C//DTD SVG 1.1//EN" "http://www.w3.org/Graphics/SVG/1.1/DTD/svg11.dtd">
<svg version="1.1" id="Layer_1" xmlns="http://www.w3.org/2000/svg" xmlns:xlink="http://www.w3.org/1999/xlink" x="0px" y="0px"
	 width="83.6px" height="83.6px" viewBox="0 0 83.6 83.6" enable-background="new 0 0 83.6 83.6" xml:space="preserve">
<path d="M45.646,83.6c-0.212,0-0.426-0.017-0.641-0.051c-1.787-0.289-3.157-1.743-3.341-3.545L38.15,45.449L3.595,41.935
	c-1.801-0.183-3.254-1.553-3.543-3.341c-0.29-1.787,0.658-3.546,2.31-4.288L77.962,0.351c1.515-0.68,3.292-0.354,4.467,0.82
	s1.501,2.953,0.82,4.467l-33.955,75.6C48.641,82.691,47.2,83.6,45.646,83.6z M19.259,35.487l22.947,2.334
	c1.889,0.192,3.382,1.687,3.573,3.575l2.333,22.944L71.64,11.96L19.259,35.487z"/>
</svg>
