<?xml version="1.0" encoding="utf-8"?>
<!-- Generator: Adobe Illustrator 16.0.3, SVG Export Plug-In . SVG Version: 6.00 Build 0)  -->
<!DOCTYPE svg PUBLIC "-//W3C//DTD SVG 1.1//EN" "http://www.w3.org/Graphics/SVG/1.1/DTD/svg11.dtd">
<svg version="1.1" id="Layer_1" xmlns="http://www.w3.org/2000/svg" xmlns:xlink="http://www.w3.org/1999/xlink" x="0px" y="0px"
	 width="67.867px" height="87.199px" viewBox="0 0 67.867 87.199" enable-background="new 0 0 67.867 87.199" xml:space="preserve">
<g>
	<path d="M63.867,0H4C1.791,0,0,1.791,0,4v79.199c0,2.209,1.791,4,4,4h59.867c2.209,0,4-1.791,4-4V4C67.867,1.791,66.076,0,63.867,0
		z M59.867,79.199H8V8h51.867V79.199z"/>
	<path d="M20.93,56.768h11.795c1.933,0,3.5-1.568,3.5-3.5c0-1.935-1.567-3.5-3.5-3.5H20.93c-1.933,0-3.5,1.565-3.5,3.5
		C17.43,55.199,18.997,56.768,20.93,56.768z"/>
	<path d="M21.484,41.058h23.75c1.934,0,3.5-1.567,3.5-3.5s-1.566-3.5-3.5-3.5h-23.75c-1.933,0-3.5,1.567-3.5,3.5
		S19.552,41.058,21.484,41.058z"/>
	<path d="M21.484,25.348h23.75c1.934,0,3.5-1.567,3.5-3.5s-1.566-3.5-3.5-3.5h-23.75c-1.933,0-3.5,1.567-3.5,3.5
		S19.552,25.348,21.484,25.348z"/>
	<path d="M42.628,50.794c-0.66,0.649-1.03,1.551-1.03,2.472c0,0.92,0.37,1.817,1.03,2.479c0.648,0.65,1.55,1.021,2.47,1.021
		s1.819-0.371,2.47-1.021c0.66-0.66,1.03-1.559,1.03-2.479c0-0.921-0.37-1.82-1.03-2.472C46.257,49.484,43.928,49.494,42.628,50.794
		z"/>
</g>
</svg>
