<?xml version="1.0" encoding="utf-8"?>
<!-- Generator: Adobe Illustrator 16.0.3, SVG Export Plug-In . SVG Version: 6.00 Build 0)  -->
<!DOCTYPE svg PUBLIC "-//W3C//DTD SVG 1.1//EN" "http://www.w3.org/Graphics/SVG/1.1/DTD/svg11.dtd">
<svg version="1.1" id="Layer_1" xmlns="http://www.w3.org/2000/svg" xmlns:xlink="http://www.w3.org/1999/xlink" x="0px" y="0px"
	 width="85.161px" height="94.628px" viewBox="0 0 85.161 94.628" enable-background="new 0 0 85.161 94.628" xml:space="preserve">
<g>
	<path d="M84.429,8.368l-7.634-7.636C76.327,0.264,75.69,0,75.027,0h-0.001c-0.663,0-1.3,0.265-1.77,0.733L28.752,45.322
		c-0.24,0.241-0.43,0.529-0.555,0.846l-4.953,12.505c-0.366,0.926-0.149,1.979,0.553,2.686c0.479,0.48,1.119,0.736,1.772,0.736
		c0.306,0,0.614-0.057,0.91-0.172l12.546-4.912c0.321-0.127,0.613-0.316,0.856-0.561l44.547-44.548
		C85.405,10.928,85.405,9.345,84.429,8.368z M36.716,52.544l-6.706,2.627l2.646-6.682L75.028,6.037l4.098,4.099L36.716,52.544z"/>
	<path d="M64.411,44.237c-2.209,0-4,1.791-4,4v38.392H8V14.706h40.192c2.209,0,4-1.791,4-4s-1.791-4-4-4H4c-2.209,0-4,1.791-4,4
		v79.922c0,2.209,1.791,4,4,4h60.411c2.209,0,4-1.791,4-4V48.238C68.411,46.028,66.62,44.237,64.411,44.237z"/>
</g>
</svg>
