<?xml version="1.0" encoding="utf-8"?>
<!-- Generator: Adobe Illustrator 16.0.3, SVG Export Plug-In . SVG Version: 6.00 Build 0)  -->
<!DOCTYPE svg PUBLIC "-//W3C//DTD SVG 1.1//EN" "http://www.w3.org/Graphics/SVG/1.1/DTD/svg11.dtd">
<svg version="1.1" id="Layer_1" xmlns="http://www.w3.org/2000/svg" xmlns:xlink="http://www.w3.org/1999/xlink" x="0px" y="0px"
	 width="67.867px" height="87.2px" viewBox="0 0 67.867 87.2" enable-background="new 0 0 67.867 87.2" xml:space="preserve">
<path d="M66.691,23.224L44.582,1.168C43.832,0.42,42.816,0,41.757,0H4C1.791,0,0,1.791,0,4v79.2c0,2.209,1.791,4,4,4h59.867
	c2.209,0,4-1.791,4-4V26.056C67.867,24.993,67.443,23.975,66.691,23.224z M59.791,27.641H39.835V8h0.268L59.791,27.641z M8,79.2V8
	h23.835v23.641c0,2.209,1.791,4,4,4h24.031V79.2H8z"/>
</svg>
