<?xml version="1.0" encoding="utf-8"?>
<!-- Generator: Adobe Illustrator 16.0.3, SVG Export Plug-In . SVG Version: 6.00 Build 0)  -->
<!DOCTYPE svg PUBLIC "-//W3C//DTD SVG 1.1//EN" "http://www.w3.org/Graphics/SVG/1.1/DTD/svg11.dtd">
<svg version="1.1" id="Layer_1" xmlns="http://www.w3.org/2000/svg" xmlns:xlink="http://www.w3.org/1999/xlink" x="0px" y="0px"
	 width="86.818px" height="89.201px" viewBox="0 0 86.818 89.201" enable-background="new 0 0 86.818 89.201" xml:space="preserve">
<g>
	<path d="M81.818,52.244c-2.762,0-5,2.237-5,5v21.957H10V57.244c0-2.763-2.237-5-5-5c-2.762,0-5,2.237-5,5v26.957
		c0,2.762,2.238,5,5,5h76.818c2.762,0,5-2.238,5-5V57.244C86.818,54.481,84.58,52.244,81.818,52.244z"/>
	<path d="M39.873,63.522c0.938,0.938,2.21,1.465,3.536,1.465s2.598-0.524,3.535-1.465l20.162-20.162c1.953-1.952,1.953-5.118,0-7.07
		c-1.951-1.953-5.119-1.953-7.07,0L48.409,47.917V5c0-2.762-2.238-5-5-5s-5,2.238-5,5v42.916L26.785,36.291
		c-1.953-1.953-5.12-1.952-7.071-0.001c-1.952,1.953-1.952,5.119-0.001,7.071L39.873,63.522z"/>
</g>
</svg>
