<?xml version="1.0" encoding="utf-8"?>
<!-- Generator: Adobe Illustrator 16.0.3, SVG Export Plug-In . SVG Version: 6.00 Build 0)  -->
<!DOCTYPE svg PUBLIC "-//W3C//DTD SVG 1.1//EN" "http://www.w3.org/Graphics/SVG/1.1/DTD/svg11.dtd">
<svg version="1.1" id="Layer_1" xmlns="http://www.w3.org/2000/svg" xmlns:xlink="http://www.w3.org/1999/xlink" x="0px" y="0px"
	 width="93.4px" height="77.996px" viewBox="0 0 93.4 77.996" enable-background="new 0 0 93.4 77.996" xml:space="preserve">
<g>
	<path d="M70.028,63.936c-1.933,0-3.5,1.565-3.5,3.5v3.56H7V28.407h9.445c1.933,0,3.5-1.567,3.5-3.5c0-1.933-1.567-3.5-3.5-3.5H3.5
		c-1.933,0-3.5,1.567-3.5,3.5v49.586c0,1.934,1.567,3.5,3.5,3.5h66.528c1.933,0,3.5-1.566,3.5-3.5v-7.059
		C73.528,65.501,71.961,63.936,70.028,63.936z"/>
	<path d="M92.375,26.69L66.709,1.026c-0.999-1-2.503-1.302-3.813-0.758c-1.309,0.542-2.16,1.818-2.16,3.233v11.542
		c-13.358,0.608-23.948,4.755-31.514,12.349c-11.52,11.563-11.595,26.809-11.593,27.451c0.006,1.584,1.076,2.968,2.608,3.371
		c0.296,0.078,0.596,0.115,0.892,0.115c1.233,0,2.405-0.654,3.039-1.764c6.7-11.725,23.989-13.477,33.699-13.477
		c1.074,0,2.04,0.022,2.867,0.055V54.83c0,1.416,0.853,2.691,2.16,3.233c1.312,0.544,2.814,0.241,3.813-0.759L92.375,31.64
		c0.656-0.657,1.025-1.547,1.025-2.475C93.4,28.237,93.031,27.346,92.375,26.69z M67.734,46.38v-6.514
		c0-1.786-1.344-3.286-3.118-3.479c-0.11-0.012-2.75-0.296-6.749-0.296c-8.239,0-21.256,1.19-30.941,7.671
		c1.396-3.7,3.644-7.805,7.255-11.43c6.854-6.879,16.966-10.368,30.055-10.368c1.933,0,3.5-1.567,3.5-3.5V11.95L84.95,29.165
		L67.734,46.38z"/>
</g>
</svg>
