<?xml version="1.0" encoding="utf-8"?>
<!-- Generator: Adobe Illustrator 16.0.3, SVG Export Plug-In . SVG Version: 6.00 Build 0)  -->
<!DOCTYPE svg PUBLIC "-//W3C//DTD SVG 1.1//EN" "http://www.w3.org/Graphics/SVG/1.1/DTD/svg11.dtd">
<svg version="1.1" id="Layer_1" xmlns="http://www.w3.org/2000/svg" xmlns:xlink="http://www.w3.org/1999/xlink" x="0px" y="0px"
	 width="78.967px" height="79.412px" viewBox="0 0 78.967 79.412" enable-background="new 0 0 78.967 79.412" xml:space="preserve">
<g>
	<path d="M41.56,35.625C26.933,21.98,5.779,24.18,4.886,24.281c-3.019,0.339-5.19,3.062-4.852,6.08
		c0.339,3.018,3.052,5.193,6.08,4.852c0.165-0.019,16.975-1.775,27.94,8.456c6.917,6.453,10.136,16.551,9.564,30.012
		c-0.129,3.035,2.227,5.601,5.262,5.729c0.08,0.002,0.158,0.004,0.237,0.004c2.93,0,5.364-2.312,5.491-5.267
		C55.324,57.33,50.933,44.369,41.56,35.625z"/>
	<path d="M13.504,53.26c-3.42,0-6.77,1.382-9.19,3.802s-3.81,5.77-3.81,9.198c0,3.421,1.39,6.771,3.81,9.189
		c2.421,2.42,5.771,3.811,9.19,3.811c3.43,0,6.78-1.391,9.19-3.811c2.42-2.421,3.81-5.771,3.81-9.189c0-3.43-1.39-6.778-3.81-9.198
		C20.285,54.642,16.934,53.26,13.504,53.26z"/>
	<path d="M59.521,16.75C37.765-3.376,6.176,0.178,4.84,0.34c-3.016,0.364-5.164,3.104-4.8,6.12c0.364,3.014,3.093,5.169,6.12,4.8
		c0.274-0.031,27.831-3.143,45.891,13.564c11.421,10.565,16.74,27.001,15.813,48.854c-0.129,3.035,2.227,5.6,5.262,5.729
		c0.079,0.002,0.158,0.004,0.236,0.004c2.932,0,5.365-2.312,5.492-5.267C79.925,48.92,73.42,29.609,59.521,16.75z"/>
</g>
</svg>
