<?xml version="1.0" encoding="utf-8"?>
<!-- Generator: Adobe Illustrator 16.0.3, SVG Export Plug-In . SVG Version: 6.00 Build 0)  -->
<!DOCTYPE svg PUBLIC "-//W3C//DTD SVG 1.1//EN" "http://www.w3.org/Graphics/SVG/1.1/DTD/svg11.dtd">
<svg version="1.1" id="Layer_1" xmlns="http://www.w3.org/2000/svg" xmlns:xlink="http://www.w3.org/1999/xlink" x="0px" y="0px"
	 width="103.839px" height="72.801px" viewBox="0 0 103.839 72.801" enable-background="new 0 0 103.839 72.801"
	 xml:space="preserve">
<path d="M102.983,27.127c-0.759-0.964-1.918-1.527-3.146-1.527h-5.512V14.564c0-2.209-1.791-4-4-4H50.475l-5.168-8.621
	C44.586,0.737,43.283,0,41.878,0H12.452c-2.209,0-4,1.791-4,4v21.6H4c-1.209,0-2.353,0.547-3.112,1.487
	c-0.759,0.94-1.053,2.174-0.798,3.355l8.452,39.201c0.397,1.842,2.026,3.158,3.91,3.158h77.874c1.846,0,3.452-1.264,3.887-3.057
	l9.514-39.202C104.016,29.351,103.742,28.092,102.983,27.127z M16.452,8h23.16l5.168,8.621c0.723,1.206,2.025,1.943,3.431,1.943
	h38.115V25.6H16.452V8z M87.181,64.801H15.682L8.954,33.6h85.797L87.181,64.801z"/>
</svg>
