<?xml version="1.0" encoding="utf-8"?>
<!-- Generator: Adobe Illustrator 16.0.3, SVG Export Plug-In . SVG Version: 6.00 Build 0)  -->
<!DOCTYPE svg PUBLIC "-//W3C//DTD SVG 1.1//EN" "http://www.w3.org/Graphics/SVG/1.1/DTD/svg11.dtd">
<svg version="1.1" id="Layer_1" xmlns="http://www.w3.org/2000/svg" xmlns:xlink="http://www.w3.org/1999/xlink" x="0px" y="0px"
	 width="89.188px" height="68.598px" viewBox="0 0 89.188 68.598" enable-background="new 0 0 89.188 68.598" xml:space="preserve">
<path d="M4,68.597c-0.338,0-0.681-0.043-1.02-0.134C1.229,68.003,0.007,66.423,0,64.611c-0.003-0.757,0.086-18.702,13.646-32.314
	c8.932-8.965,21.444-13.85,37.241-14.545V4c0-1.618,0.975-3.076,2.47-3.694c1.493-0.619,3.216-0.277,4.357,0.866l30.301,30.298
	c1.35,1.351,1.558,3.466,0.497,5.053c-0.159,0.236-0.341,0.454-0.539,0.646c-1.211,1.211-30.258,30.256-30.258,30.256
	c-1.144,1.146-2.866,1.484-4.357,0.867c-1.495-0.619-2.47-2.078-2.47-3.694V50.675c-1.006-0.039-2.191-0.067-3.518-0.067
	c-11.492,0-31.956,2.074-39.897,15.975C6.748,67.849,5.41,68.597,4,68.597z M47.371,42.606c4.714,0,7.822,0.334,7.952,0.349
	c2.028,0.222,3.564,1.937,3.564,3.977v8.009l20.642-20.643L58.888,13.657v8.008c0,2.209-1.791,4-4,4
	c-29.215,0-40.229,14.878-44.38,26.25C21.954,44.04,37.546,42.606,47.371,42.606z"/>
</svg>
