<?xml version="1.0" encoding="utf-8"?>
<!-- Generator: Adobe Illustrator 16.0.3, SVG Export Plug-In . SVG Version: 6.00 Build 0)  -->
<!DOCTYPE svg PUBLIC "-//W3C//DTD SVG 1.1//EN" "http://www.w3.org/Graphics/SVG/1.1/DTD/svg11.dtd">
<svg version="1.1" id="Layer_1" xmlns="http://www.w3.org/2000/svg" xmlns:xlink="http://www.w3.org/1999/xlink" x="0px" y="0px"
	 width="101.6px" height="67.234px" viewBox="0 0 101.6 67.234" enable-background="new 0 0 101.6 67.234" xml:space="preserve">
<g>
	<path d="M63.783,14.595c-1.45,0-2.87,0.59-3.891,1.61c-1.03,1.02-1.609,2.438-1.609,3.89s0.579,2.87,1.609,3.89
		c1.021,1.021,2.439,1.61,3.891,1.61c1.438,0,2.859-0.59,3.89-1.61c1.021-1.028,1.61-2.438,1.61-3.89s-0.591-2.87-1.61-3.89
		C66.644,15.185,65.223,14.595,63.783,14.595z"/>
	<path d="M75.113,23.265c-1.449,0-2.869,0.59-3.891,1.61c-1.02,1.028-1.609,2.438-1.609,3.89s0.591,2.87,1.609,3.891
		c1.03,1.021,2.44,1.609,3.891,1.609c1.451,0,2.87-0.589,3.891-1.609s1.609-2.439,1.609-3.891s-0.59-2.859-1.609-3.89
		C77.983,23.854,76.563,23.265,75.113,23.265z"/>
	<path d="M37.243,21.433H33.95v-3.296c0-1.381-1.119-2.5-2.5-2.5c-1.382,0-2.5,1.119-2.5,2.5v3.296h-3.293
		c-1.382,0-2.5,1.119-2.5,2.5s1.118,2.5,2.5,2.5h3.293v3.292c0,1.381,1.118,2.5,2.5,2.5c1.381,0,2.5-1.119,2.5-2.5v-3.292h3.293
		c1.381,0,2.5-1.119,2.5-2.5S38.624,21.433,37.243,21.433z"/>
	<path d="M90.436,15.743c0.963-3.107,0.585-6.358-1.121-9.331c-2.005-3.493-5.688-6.184-8.759-6.396C80.394,0.006,80.226,0,80.052,0
		c-2.788,0-6.63,1.71-8.807,2.807c-6.872-1.14-13.91-1.717-20.94-1.717c-9.831,0-17.033,1.124-20.014,1.685
		c-2.324-1.166-6.5-2.952-9.247-2.757c-3.07,0.212-6.754,2.901-8.759,6.396c-1.706,2.973-2.084,6.224-1.121,9.331
		C8.642,21.691,0,43.053,0,56.502c0,2.979,1.081,5.707,3.043,7.682c1.956,1.967,4.645,3.051,7.569,3.051
		c4.376,0,8.826-2.375,12.528-6.688c2.97-3.457,8.064-9.9,10.656-13.201c3.444,0.773,9.902,1.932,17.688,1.932
		c5.758,0,11.243-0.635,16.349-1.889c2.603,3.313,7.666,9.717,10.623,13.158c3.703,4.313,8.151,6.688,12.527,6.688
		c6.052,0,10.613-4.614,10.613-10.731C101.6,43.053,92.958,21.691,90.436,15.743z M90.986,59.235c-1.978,0-4.331-1.422-6.46-3.899
		c-3.894-4.533-11.938-14.854-12.021-14.957c-0.771-0.988-1.943-1.541-3.155-1.541c-0.379,0-0.761,0.053-1.136,0.164
		c-5.103,1.512-10.729,2.276-16.729,2.276c-10.222,0-18.028-2.256-18.103-2.276c-1.574-0.465-3.279,0.08-4.291,1.377
		c-0.081,0.104-8.126,10.424-12.021,14.957c-2.128,2.479-4.481,3.899-6.46,3.899c-0.791,0-1.446-0.237-1.896-0.69
		C8.248,58.071,8,57.366,8,56.502c0-13.721,11.035-38.817,11.146-39.069c0.481-1.086,0.454-2.33-0.071-3.395
		c-0.536-1.081-0.566-2.086-0.096-3.161c0.684-1.559,2.107-2.605,2.717-2.866c1.057,0.124,3.849,1.254,6.076,2.473
		c0.86,0.474,1.867,0.609,2.827,0.391c0.077-0.019,7.88-1.784,19.705-1.784c7.027,0,14.06,0.614,20.9,1.826
		c0.9,0.158,1.822,0.006,2.622-0.433c2.205-1.209,5.082-2.369,6.063-2.479c0.604,0.253,2.042,1.305,2.729,2.872
		c0.472,1.075,0.44,2.08-0.096,3.161c-0.525,1.064-0.554,2.309-0.071,3.395C82.564,17.686,93.6,42.764,93.6,56.502
		C93.6,58.213,92.623,59.235,90.986,59.235z"/>
</g>
</svg>
