<?xml version="1.0" encoding="utf-8"?>
<!-- Generator: Adobe Illustrator 16.0.3, SVG Export Plug-In . SVG Version: 6.00 Build 0)  -->
<!DOCTYPE svg PUBLIC "-//W3C//DTD SVG 1.1//EN" "http://www.w3.org/Graphics/SVG/1.1/DTD/svg11.dtd">
<svg version="1.1" id="Layer_1" xmlns="http://www.w3.org/2000/svg" xmlns:xlink="http://www.w3.org/1999/xlink" x="0px" y="0px"
	 width="93.4px" height="93.398px" viewBox="0 0 93.4 93.398" enable-background="new 0 0 93.4 93.398" xml:space="preserve">
<g>
	<path d="M92.437,36.781c-0.356-1.385-1.52-2.412-2.937-2.599l-7.656-1.002c-0.165-0.444-0.281-0.744-0.297-0.78l-0.13-0.312
		c0,0-0.119-0.271-0.309-0.683l4.705-6.121c0.871-1.134,0.966-2.683,0.239-3.913c-0.08-0.137-2.017-3.379-6.331-7.697
		c-4.315-4.314-7.561-6.249-7.695-6.329c-1.231-0.728-2.779-0.634-3.912,0.239l-6.121,4.705c-0.412-0.188-0.681-0.309-0.681-0.309
		c-0.036-0.017-0.072-0.031-0.109-0.047l-0.286-0.115c0,0-0.273-0.104-0.7-0.265l-1.001-7.657c-0.186-1.417-1.214-2.579-2.598-2.936
		C56.466,0.925,52.804,0,46.701,0s-9.767,0.925-9.92,0.964C35.397,1.32,34.369,2.483,34.183,3.9l-1.001,7.658
		c-0.439,0.164-0.734,0.277-0.764,0.289l-0.233,0.096c-0.032,0.014-0.063,0.026-0.096,0.04c0,0-0.27,0.12-0.683,0.31l-6.122-4.706
		c-1.133-0.871-2.683-0.964-3.912-0.238c-0.136,0.08-3.378,2.015-7.697,6.331c-4.313,4.316-6.25,7.561-6.329,7.695
		c-0.728,1.23-0.633,2.779,0.238,3.914l4.706,6.119c-0.188,0.412-0.309,0.682-0.309,0.682l0.016,0.007
		c-0.064,0.122-0.124,0.25-0.175,0.383c0,0-0.107,0.276-0.268,0.704L3.9,34.184c-1.417,0.187-2.579,1.214-2.937,2.599
		C0.926,36.935,0.001,40.596,0,46.7c0,6.104,0.926,9.766,0.965,9.92c0.357,1.383,1.521,2.41,2.937,2.596l7.656,1.002
		c0.165,0.441,0.278,0.736,0.29,0.764l0.096,0.234c0.014,0.031,0.027,0.064,0.041,0.096c0,0,0.119,0.271,0.309,0.683l-4.706,6.121
		c-0.872,1.133-0.966,2.684-0.238,3.913c0.08,0.136,2.017,3.378,6.33,7.693c4.315,4.318,7.563,6.252,7.697,6.332
		c1.229,0.728,2.778,0.631,3.911-0.24l6.121-4.705c0.414,0.189,0.684,0.31,0.684,0.31c0.031,0.014,0.063,0.026,0.096,0.041
		l0.295,0.119c0,0,0.274,0.106,0.702,0.266l1.002,7.658c0.186,1.416,1.215,2.578,2.599,2.936c0.153,0.039,3.813,0.963,9.918,0.963
		c6.104,0,9.765-0.924,9.918-0.963c1.384-0.356,2.412-1.52,2.598-2.936l1.002-7.658c0.441-0.164,0.74-0.279,0.774-0.293l0.318-0.133
		c0,0,0.27-0.119,0.683-0.31l6.12,4.705c1.135,0.873,2.686,0.968,3.914,0.238c0.137-0.08,3.377-2.016,7.695-6.33
		c4.313-4.315,6.25-7.559,6.33-7.693c0.727-1.229,0.633-2.78-0.238-3.913l-4.706-6.121c0.188-0.414,0.309-0.685,0.309-0.685
		c0.015-0.031,0.027-0.063,0.04-0.094l0.12-0.295c0,0,0.106-0.275,0.267-0.703l7.656-1.002c1.417-0.186,2.579-1.213,2.937-2.598
		c0.039-0.152,0.963-3.813,0.964-9.918C93.4,40.597,92.476,36.935,92.437,36.781z M86.043,52.608l-7.226,0.945
		c-1.321,0.172-2.43,1.08-2.859,2.342c-0.413,1.215-0.886,2.439-0.886,2.439l-0.074,0.184c-0.104,0.232-0.592,1.32-1.105,2.363
		c-0.589,1.197-0.448,2.625,0.363,3.682l4.441,5.777c-0.859,1.117-2.151,2.658-3.924,4.43c-1.774,1.773-3.316,3.066-4.433,3.926
		l-5.775-4.44c-1.06-0.813-2.484-0.953-3.683-0.365c-1.142,0.564-2.331,1.094-2.331,1.094s0.004,0,0.005-0.002l-0.157,0.066
		c0,0-1.26,0.486-2.505,0.91c-1.262,0.43-2.168,1.539-2.341,2.858l-0.944,7.226c-1.397,0.182-3.4,0.356-5.907,0.356
		c-2.51,0-4.514-0.176-5.91-0.356l-0.944-7.226c-0.174-1.321-1.081-2.43-2.343-2.858c-1.213-0.414-2.438-0.885-2.438-0.885
		l-0.187-0.076c-0.231-0.104-1.317-0.59-2.36-1.105c-1.193-0.588-2.624-0.449-3.684,0.363l-5.778,4.443
		c-1.116-0.859-2.658-2.152-4.432-3.927c-1.772-1.772-3.064-3.315-3.925-4.43l4.442-5.779c0.813-1.059,0.955-2.485,0.363-3.684
		c-0.52-1.051-1.011-2.146-1.109-2.367l-0.048-0.117c-0.01-0.021-0.488-1.264-0.906-2.496c-0.428-1.264-1.538-2.174-2.86-2.346
		l-7.228-0.945C7.177,51.211,7,49.208,7,46.702c0-2.511,0.177-4.515,0.358-5.911l7.227-0.945c1.322-0.174,2.433-1.083,2.86-2.346
		c0.417-1.23,0.897-2.476,0.906-2.495c0.011-0.026,0.02-0.052,0.028-0.077h0.001c0,0,0.548-1.23,1.128-2.408
		c0.592-1.196,0.449-2.625-0.363-3.684l-4.442-5.777c0.859-1.116,2.151-2.658,3.923-4.432c1.775-1.773,3.317-3.065,4.434-3.925
		l5.778,4.441c1.059,0.813,2.484,0.951,3.682,0.364c1.054-0.521,2.15-1.012,2.37-1.109l0.112-0.047
		c0.021-0.008,1.271-0.489,2.504-0.91c1.262-0.43,2.168-1.538,2.342-2.857l0.943-7.228C42.188,7.177,44.193,7,46.701,7
		s4.512,0.177,5.908,0.356l0.944,7.228c0.173,1.319,1.08,2.429,2.342,2.857c1.219,0.416,2.45,0.891,2.45,0.891h0.001l0.177,0.07
		c0.245,0.109,1.324,0.596,2.361,1.106c1.194,0.588,2.622,0.447,3.68-0.366l5.777-4.44c1.116,0.858,2.657,2.15,4.431,3.923
		c1.772,1.774,3.065,3.317,3.926,4.434l-4.441,5.778c-0.813,1.057-0.953,2.483-0.364,3.681c0.563,1.141,1.093,2.332,1.093,2.332
		v-0.002L75.049,35c0.009,0.021,0.489,1.27,0.91,2.504c0.431,1.261,1.537,2.169,2.858,2.342l7.226,0.945
		c0.182,1.396,0.357,3.4,0.357,5.909C86.4,49.208,86.224,51.211,86.043,52.608z"/>
	<path d="M46.701,24.401c-12.296,0-22.299,10.003-22.299,22.299c0,12.295,10.003,22.299,22.299,22.299
		c12.295,0,22.297-10.004,22.297-22.299C68.998,34.404,58.996,24.401,46.701,24.401z M46.701,61.999
		c-8.436,0-15.299-6.863-15.299-15.299s6.863-15.299,15.299-15.299S61.998,38.265,61.998,46.7
		C61.998,55.135,55.136,61.999,46.701,61.999z"/>
</g>
</svg>
