<?xml version="1.0" encoding="utf-8"?>
<!-- Generator: Adobe Illustrator 16.0.3, SVG Export Plug-In . SVG Version: 6.00 Build 0)  -->
<!DOCTYPE svg PUBLIC "-//W3C//DTD SVG 1.1//EN" "http://www.w3.org/Graphics/SVG/1.1/DTD/svg11.dtd">
<svg version="1.1" id="Layer_1" xmlns="http://www.w3.org/2000/svg" xmlns:xlink="http://www.w3.org/1999/xlink" x="0px" y="0px"
	 width="93.9px" height="93.9px" viewBox="0 0 93.9 93.9" enable-background="new 0 0 93.9 93.9" xml:space="preserve">
<g>
	<path d="M42.581,39.08V3.5c0-1.934-1.566-3.5-3.5-3.5C17.531,0,0,17.531,0,39.08c0,1.933,1.567,3.5,3.5,3.5h35.581
		C41.014,42.58,42.581,41.013,42.581,39.08z M35.581,35.58H7.189C8.813,20.681,20.681,8.813,35.581,7.189V35.58z"/>
	<path d="M51.953,6.326c-2.209,0-4,1.791-4,4v37.625H10.326c-2.209,0-4,1.791-4,4c0,23.131,19.644,41.948,43.787,41.948
		S93.9,74.256,93.9,50.112C93.9,26.378,74.69,6.326,51.953,6.326z M50.113,85.901c-18.307,0-33.447-13.106-35.54-29.948h37.38
		c2.209,0,4-1.791,4-4V14.586C72.553,16.747,85.9,32.138,85.9,50.112C85.9,69.846,69.847,85.901,50.113,85.901z"/>
</g>
</svg>
