<?xml version="1.0" encoding="utf-8"?>
<!-- Generator: Adobe Illustrator 16.0.3, SVG Export Plug-In . SVG Version: 6.00 Build 0)  -->
<!DOCTYPE svg PUBLIC "-//W3C//DTD SVG 1.1//EN" "http://www.w3.org/Graphics/SVG/1.1/DTD/svg11.dtd">
<svg version="1.1" id="Layer_1" xmlns="http://www.w3.org/2000/svg" xmlns:xlink="http://www.w3.org/1999/xlink" x="0px" y="0px"
	 width="93.803px" height="74.157px" viewBox="0 0 93.803 74.157" enable-background="new 0 0 93.803 74.157" xml:space="preserve">
<path d="M5.496,74.157c-0.972,0-1.952-0.258-2.844-0.797c-2.599-1.572-3.431-4.953-1.856-7.553l12.609-20.832
	c0.95-1.57,2.621-2.564,4.455-2.646c1.812-0.084,3.586,0.752,4.678,2.23l5.12,6.943l11.199-18.742
	c0.938-1.569,2.594-2.57,4.418-2.67c1.847-0.099,3.582,0.713,4.687,2.168l9.711,12.807L83.609,2.633
	c1.584-2.593,4.971-3.41,7.562-1.824c2.592,1.584,3.409,4.969,1.824,7.561L62.854,57.683c-0.946,1.553-2.602,2.534-4.417,2.625
	c-1.797,0.094-3.56-0.722-4.658-2.17L44.12,45.399L32.858,64.241c-0.943,1.58-2.615,2.584-4.455,2.672
	c-1.817,0.104-3.599-0.746-4.691-2.229L18.562,57.7l-8.354,13.803C9.172,73.211,7.356,74.157,5.496,74.157z"/>
</svg>
