<?xml version="1.0" encoding="utf-8"?>
<!-- Generator: Adobe Illustrator 16.0.3, SVG Export Plug-In . SVG Version: 6.00 Build 0)  -->
<!DOCTYPE svg PUBLIC "-//W3C//DTD SVG 1.1//EN" "http://www.w3.org/Graphics/SVG/1.1/DTD/svg11.dtd">
<svg version="1.1" id="Layer_1" xmlns="http://www.w3.org/2000/svg" xmlns:xlink="http://www.w3.org/1999/xlink" x="0px" y="0px"
	 width="66.412px" height="89.6px" viewBox="0 0 66.412 89.6" enable-background="new 0 0 66.412 89.6" xml:space="preserve">
<g>
	<path d="M59.412,0c-3.866,0-7,3.134-7,7v75.6c0,3.867,3.134,7,7,7s7-3.133,7-7V7C66.412,3.134,63.278,0,59.412,0z"/>
	<path d="M33.209,24.945c-3.866,0-7,3.135-7,7V82.6c0,3.867,3.134,7,7,7s7-3.133,7-7V31.945
		C40.209,28.079,37.075,24.945,33.209,24.945z"/>
	<path d="M7,49.897c-3.866,0-7,3.134-7,7V82.6c0,3.867,3.134,7,7,7s7-3.133,7-7V56.897C14,53.031,10.866,49.897,7,49.897z"/>
</g>
</svg>
