<?xml version="1.0" encoding="utf-8"?>
<!-- Generator: Adobe Illustrator 16.0.3, SVG Export Plug-In . SVG Version: 6.00 Build 0)  -->
<!DOCTYPE svg PUBLIC "-//W3C//DTD SVG 1.1//EN" "http://www.w3.org/Graphics/SVG/1.1/DTD/svg11.dtd">
<svg version="1.1" id="Layer_1" xmlns="http://www.w3.org/2000/svg" xmlns:xlink="http://www.w3.org/1999/xlink" x="0px" y="0px"
	 width="90.451px" height="97.611px" viewBox="0 0 90.451 97.611" enable-background="new 0 0 90.451 97.611" xml:space="preserve">
<g>
	<path d="M77.479,13.463C69.022,4.875,57.728,0.094,45.674,0.002C20.822-0.223,0.396,19.898,0.207,44.778L0,71.74
		c-0.017,2.209,1.76,4.014,3.97,4.03c0.01,0,0.021,0,0.031,0C6.195,75.77,7.983,74,8,71.8l0.207-26.96
		C8.363,24.467,24.986,8.001,45.324,8.001c0.096,0,0.192,0,0.289,0.001c9.916,0.076,19.208,4.009,26.166,11.075
		c6.959,7.065,10.748,16.417,10.672,26.332l-0.206,26.962c-0.017,2.209,1.761,4.014,3.97,4.03c0.01,0,0.021,0,0.031,0
		c2.193,0,3.982-1.771,3.999-3.97l0.206-26.962C90.543,33.418,85.937,22.051,77.479,13.463z"/>
	<path d="M59.763,45.756c-0.009,0-0.018,0-0.027,0c-1.92,0-3.483,1.55-3.498,3.474l-0.346,44.854
		c-0.015,1.935,1.541,3.512,3.474,3.527h0.265c0.001,0,0,0,0.001,0c13.861,0,17.591-8.619,17.626-13.176l0.193-25.229
		c0.003-0.368-0.041-3.688-2.403-6.986C72.961,49.308,68.616,45.824,59.763,45.756z M70.257,84.319
		c-0.042,0.919-0.613,5.043-7.337,6.063l0.287-37.346c6.703,1.122,7.214,5.246,7.242,6.115L70.257,84.319z"/>
	<path d="M31.666,45.541l-0.263-0.001c-13.863,0-17.593,8.62-17.628,13.179l-0.193,25.229c-0.003,0.368,0.041,3.688,2.403,6.985
		c2.086,2.91,6.43,6.396,15.283,6.463c0.009,0,0.018,0,0.027,0c1.92,0,3.484-1.55,3.499-3.475l0.345-44.854
		c0.007-0.929-0.354-1.822-1.006-2.483C33.482,45.923,32.595,45.548,31.666,45.541z M27.824,90.114
		c-6.703-1.121-7.214-5.243-7.242-6.112l0.192-25.167c0.042-0.919,0.614-5.044,7.337-6.064L27.824,90.114z"/>
</g>
</svg>
