<?xml version="1.0" encoding="utf-8"?>
<!-- Generator: Adobe Illustrator 16.0.3, SVG Export Plug-In . SVG Version: 6.00 Build 0)  -->
<!DOCTYPE svg PUBLIC "-//W3C//DTD SVG 1.1//EN" "http://www.w3.org/Graphics/SVG/1.1/DTD/svg11.dtd">
<svg version="1.1" id="Layer_1" xmlns="http://www.w3.org/2000/svg" xmlns:xlink="http://www.w3.org/1999/xlink" x="0px" y="0px"
	 width="90.803px" height="81.854px" viewBox="0 0 90.803 81.854" enable-background="new 0 0 90.803 81.854" xml:space="preserve">
<g>
	<path d="M88.476,15.769C84.2,6.189,75.122,0,65.35,0c-9.9,0-16.26,4.403-19.948,9.104C41.713,4.404,35.354,0,25.453,0
		C15.681,0,6.603,6.189,2.327,15.769c-4.419,9.901-2.472,20.925,5.212,29.488C26.14,65.995,42.576,80.695,42.739,80.841
		c0.76,0.676,1.712,1.014,2.662,1.014c0.951,0,1.903-0.338,2.662-1.014c0.163-0.146,16.601-14.846,35.2-35.584
		C90.946,36.693,92.895,25.67,88.476,15.769z M77.309,39.915C63.394,55.428,50.73,67.49,45.401,72.432
		c-5.329-4.942-17.991-17.004-31.906-32.517c-5.596-6.236-7.002-13.85-3.861-20.887C12.577,12.433,18.935,8,25.453,8
		c12.892,0,15.782,9.582,16.063,10.643c0.438,1.79,2.043,3.049,3.886,3.049c1.844,0,3.447-1.259,3.887-3.049
		C49.393,18.208,52.044,8,65.35,8c6.52,0,12.876,4.433,15.82,11.028C84.311,26.066,82.903,33.679,77.309,39.915z"/>
	<path d="M65.308,12.36c-2.194-0.305-4.205,1.234-4.503,3.424c-0.299,2.188,1.234,4.204,3.423,4.503
		c0.209,0.028,5.134,0.779,5.603,7.819c0.141,2.113,1.897,3.734,3.986,3.734c0.089,0,0.18-0.003,0.271-0.009
		c2.204-0.146,3.872-2.053,3.726-4.257C77.095,16.79,69.319,12.906,65.308,12.36z"/>
	<path d="M68.976,33.57c-1.05,0-2.08,0.431-2.83,1.171c-0.74,0.738-1.17,1.77-1.17,2.829c0,1.051,0.43,2.079,1.17,2.829
		c0.75,0.74,1.78,1.171,2.83,1.171s2.08-0.431,2.83-1.171c0.74-0.75,1.17-1.778,1.17-2.829c0-1.061-0.43-2.091-1.17-2.829
		C71.056,34,70.025,33.57,68.976,33.57z"/>
</g>
</svg>
