<?xml version="1.0" encoding="utf-8"?>
<!-- Generator: Adobe Illustrator 16.0.3, SVG Export Plug-In . SVG Version: 6.00 Build 0)  -->
<!DOCTYPE svg PUBLIC "-//W3C//DTD SVG 1.1//EN" "http://www.w3.org/Graphics/SVG/1.1/DTD/svg11.dtd">
<svg version="1.1" id="Layer_1" xmlns="http://www.w3.org/2000/svg" xmlns:xlink="http://www.w3.org/1999/xlink" x="0px" y="0px"
	 width="90.8px" height="90.8px" viewBox="0 0 90.8 90.8" enable-background="new 0 0 90.8 90.8" xml:space="preserve">
<path d="M45.4,0C20.366,0,0,20.366,0,45.399C0,70.433,20.366,90.8,45.4,90.8c25.034,0,45.4-20.367,45.4-45.401
	C90.8,20.366,70.434,0,45.4,0z M45.4,64.402c-10.479,0-19.003-8.523-19.003-19.002c0-10.479,8.524-19.003,19.003-19.003
	c10.479,0,19.003,8.524,19.003,19.003C64.403,55.878,55.878,64.402,45.4,64.402z M8,45.399c0-5.156,1.049-10.072,2.944-14.546
	l10.608,4.194c-1.384,3.175-2.155,6.674-2.155,10.352c0,3.377,0.654,6.604,1.832,9.567L10.658,59.22C8.95,54.941,8,50.281,8,45.399z
	 M69.571,35.831l10.57-4.252c1.709,4.278,2.657,8.939,2.657,13.82c0,5.157-1.049,10.073-2.943,14.547l-10.607-4.194
	c1.383-3.174,2.155-6.674,2.155-10.353C71.403,42.021,70.75,38.795,69.571,35.831z M77.976,27.06l-10.701,4.307
	c-1.865-2.896-4.286-5.401-7.115-7.359l4.266-10.789C70.062,16.563,74.746,21.347,77.976,27.06z M59.946,10.944l-4.194,10.607
	c-3.174-1.383-6.674-2.155-10.352-2.155c-3.378,0-6.604,0.654-9.569,1.832l-4.252-10.57C35.858,8.95,40.519,8,45.4,8
	C50.557,8,55.473,9.049,59.946,10.944z M27.062,12.823l4.305,10.703c-2.896,1.865-5.4,4.286-7.358,7.115l-10.79-4.267
	C16.564,20.737,21.348,16.053,27.062,12.823z M12.823,63.738l10.703-4.305c1.865,2.896,4.286,5.4,7.115,7.357l-4.266,10.791
	C20.737,74.236,16.053,69.453,12.823,63.738z M30.854,79.855l4.193-10.607c3.175,1.383,6.674,2.154,10.353,2.154
	c3.378,0,6.604-0.654,9.566-1.832l4.254,10.572C54.942,81.851,50.281,82.8,45.4,82.8C40.243,82.8,35.327,81.751,30.854,79.855z
	 M63.738,77.976l-4.306-10.703c2.897-1.865,5.401-4.285,7.358-7.115l10.791,4.266C74.235,70.062,69.453,74.748,63.738,77.976z"/>
</svg>
