<?xml version="1.0" encoding="utf-8"?>
<!-- Generator: Adobe Illustrator 16.0.3, SVG Export Plug-In . SVG Version: 6.00 Build 0)  -->
<!DOCTYPE svg PUBLIC "-//W3C//DTD SVG 1.1//EN" "http://www.w3.org/Graphics/SVG/1.1/DTD/svg11.dtd">
<svg version="1.1" id="Layer_1" xmlns="http://www.w3.org/2000/svg" xmlns:xlink="http://www.w3.org/1999/xlink" x="0px" y="0px"
	 width="88.839px" height="90.8px" viewBox="0 0 88.839 90.8" enable-background="new 0 0 88.839 90.8" xml:space="preserve">
<g>
	<path d="M87.667,41.596L47.248,1.172C46.498,0.422,45.48,0,44.42,0s-2.078,0.422-2.828,1.172L1.172,41.596
		c-1.563,1.562-1.563,4.095,0,5.655c1.563,1.563,4.096,1.563,5.656,0L44.42,9.657l37.591,37.594
		c0.779,0.781,1.805,1.172,2.828,1.172c1.022,0,2.047-0.391,2.828-1.172C89.229,45.691,89.229,43.158,87.667,41.596z"/>
	<path d="M72.264,44.272c-2.209,0-4,1.792-4,4V82.8H58.035V58.503c0-2.209-1.791-4-4-4H34.803c-2.209,0-4,1.791-4,4V82.8H20.576
		V48.273c0-2.209-1.791-4-4-4s-4,1.792-4,4V86.8c0,2.209,1.791,4,4,4h18.227c2.209,0,4-1.791,4-4V62.503h11.231V86.8
		c0,2.209,1.791,4,4,4h18.229c2.209,0,4-1.791,4-4V48.273C76.264,46.064,74.473,44.272,72.264,44.272z"/>
</g>
</svg>
