<?xml version="1.0" encoding="utf-8"?>
<!-- Generator: Adobe Illustrator 16.0.3, SVG Export Plug-In . SVG Version: 6.00 Build 0)  -->
<!DOCTYPE svg PUBLIC "-//W3C//DTD SVG 1.1//EN" "http://www.w3.org/Graphics/SVG/1.1/DTD/svg11.dtd">
<svg version="1.1" id="Layer_1" xmlns="http://www.w3.org/2000/svg" xmlns:xlink="http://www.w3.org/1999/xlink" x="0px" y="0px"
	 width="87.199px" height="87.2px" viewBox="0 0 87.199 87.2" enable-background="new 0 0 87.199 87.2" xml:space="preserve">
<g>
	<path d="M49.438,59.241l-3.685,1.605l4.793-24.332c0.265-1.341-0.274-2.712-1.383-3.513c-1.106-0.8-2.578-0.882-3.769-0.214
		l-8.88,5.002c-1.685,0.949-2.28,3.083-1.332,4.768c0.951,1.686,3.084,2.281,4.768,1.332l2.26-1.273l-4.615,23.429
		c-0.252,1.277,0.226,2.59,1.24,3.404c0.633,0.51,1.409,0.772,2.194,0.772c0.473,0,0.948-0.097,1.396-0.291l9.808-4.272
		c1.771-0.771,2.582-2.834,1.812-4.605C53.271,59.28,51.209,58.467,49.438,59.241z"/>
	<path d="M47.113,26.254c1.32,0,2.601-0.53,3.531-1.46c0.93-0.93,1.469-2.22,1.469-3.54c0-1.32-0.539-2.61-1.469-3.53
		c-0.932-0.93-2.222-1.47-3.531-1.47c-1.319,0-2.609,0.54-3.539,1.47c-0.93,0.92-1.46,2.21-1.46,3.53c0,1.32,0.53,2.61,1.46,3.54
		C44.504,25.724,45.794,26.254,47.113,26.254z"/>
	<path d="M43.6,0C19.559,0,0,19.559,0,43.6s19.559,43.6,43.6,43.6c24.041,0,43.6-19.559,43.6-43.6C87.199,19.559,67.641,0,43.6,0z
		 M43.6,79.2C23.97,79.2,8,63.229,8,43.6C8,23.97,23.97,8,43.6,8c19.63,0,35.6,15.97,35.6,35.6C79.199,63.229,63.229,79.2,43.6,79.2
		z"/>
</g>
</svg>
