<?xml version="1.0" encoding="utf-8"?>
<!-- Generator: Adobe Illustrator 16.0.3, SVG Export Plug-In . SVG Version: 6.00 Build 0)  -->
<!DOCTYPE svg PUBLIC "-//W3C//DTD SVG 1.1//EN" "http://www.w3.org/Graphics/SVG/1.1/DTD/svg11.dtd">
<svg version="1.1" id="Layer_1" xmlns="http://www.w3.org/2000/svg" xmlns:xlink="http://www.w3.org/1999/xlink" x="0px" y="0px"
	 width="87.75px" height="91.8px" viewBox="0 0 87.75 91.8" enable-background="new 0 0 87.75 91.8" xml:space="preserve">
<g>
	<path d="M43.875,0c-2.485,0-4.5,2.015-4.5,4.5v17.182c0,2.485,2.015,4.5,4.5,4.5c2.484,0,4.5-2.015,4.5-4.5V4.5
		C48.375,2.015,46.359,0,43.875,0z"/>
	<path d="M23.181,9.762c-1.461-2.01-4.274-2.454-6.286-0.995c-2.011,1.461-2.456,4.275-0.995,6.286L26,28.952
		c0.881,1.212,2.253,1.854,3.645,1.854c0.917,0,1.843-0.279,2.642-0.859c2.011-1.461,2.456-4.275,0.995-6.286L23.181,9.762z"/>
	<path d="M3.11,37.387l16.34,5.31c0.462,0.15,0.931,0.222,1.392,0.222c1.896,0,3.661-1.209,4.278-3.11
		c0.769-2.363-0.525-4.902-2.889-5.67l-16.34-5.31c-2.361-0.77-4.902,0.525-5.67,2.889C-0.547,34.08,0.747,36.619,3.11,37.387z"/>
	<path d="M25.12,51.994c-0.767-2.363-3.307-3.658-5.67-2.889L3.11,54.414c-2.363,0.769-3.657,3.308-2.889,5.67
		c0.617,1.902,2.382,3.111,4.278,3.111c0.461,0,0.93-0.072,1.392-0.223l16.34-5.309C24.595,56.896,25.889,54.357,25.12,51.994z"/>
	<path d="M32.285,61.853c-2.012-1.461-4.825-1.016-6.286,0.996l-10.1,13.898c-1.461,2.012-1.016,4.826,0.995,6.287
		c0.799,0.58,1.725,0.858,2.642,0.858c1.392,0,2.764-0.646,3.645-1.854l10.1-13.898C34.741,66.128,34.296,63.314,32.285,61.853z"/>
	<path d="M43.875,65.621c-2.485,0-4.5,2.014-4.5,4.5V87.3c0,2.486,2.015,4.5,4.5,4.5c2.484,0,4.5-2.014,4.5-4.5v-17.18
		C48.375,67.634,46.359,65.621,43.875,65.621z"/>
	<path d="M61.751,62.849c-1.461-2.01-4.274-2.455-6.286-0.996c-2.011,1.461-2.456,4.275-0.994,6.287l10.1,13.898
		c0.881,1.213,2.253,1.854,3.645,1.854c0.917,0,1.844-0.278,2.643-0.858c2.011-1.461,2.455-4.275,0.994-6.287L61.751,62.849z"/>
	<path d="M84.641,54.414L68.3,49.105c-2.362-0.77-4.901,0.525-5.67,2.889s0.524,4.902,2.89,5.67l16.34,5.31
		c0.461,0.149,0.931,0.223,1.392,0.223c1.896,0,3.661-1.209,4.278-3.11C88.297,57.72,87.003,55.181,84.641,54.414z"/>
	<path d="M62.63,39.808c0.617,1.901,2.382,3.11,4.278,3.11c0.461,0,0.93-0.071,1.392-0.222l16.341-5.31
		c2.362-0.768,3.656-3.307,2.889-5.67c-0.768-2.363-3.307-3.658-5.67-2.889l-16.34,5.31C63.154,34.905,61.861,37.444,62.63,39.808z"
		/>
	<path d="M55.465,29.947c0.799,0.58,1.725,0.859,2.643,0.859c1.392,0,2.764-0.643,3.645-1.854l10.1-13.899
		c1.461-2.011,1.017-4.825-0.994-6.286c-2.012-1.461-4.825-1.014-6.287,0.995l-10.1,13.899
		C53.009,25.672,53.454,28.486,55.465,29.947z"/>
</g>
</svg>
