<?xml version="1.0" encoding="utf-8"?>
<!-- Generator: Adobe Illustrator 16.0.3, SVG Export Plug-In . SVG Version: 6.00 Build 0)  -->
<!DOCTYPE svg PUBLIC "-//W3C//DTD SVG 1.1//EN" "http://www.w3.org/Graphics/SVG/1.1/DTD/svg11.dtd">
<svg version="1.1" id="Layer_1" xmlns="http://www.w3.org/2000/svg" xmlns:xlink="http://www.w3.org/1999/xlink" x="0px" y="0px"
	 width="61.256px" height="83.6px" viewBox="0 0 61.256 83.6" enable-background="new 0 0 61.256 83.6" xml:space="preserve">
<g>
	<path d="M30.628,0C16.499,0,0,8.35,0,31.883c0,22.809,26.681,49.439,27.816,50.561c0.779,0.771,1.795,1.155,2.812,1.155
		c1.018,0,2.032-0.385,2.813-1.155c1.136-1.121,27.815-27.752,27.815-50.561C61.256,8.35,44.757,0,30.628,0z M30.626,73.787
		C24.005,66.546,8,47.433,8,31.883C8,9.722,25.319,8,30.628,8c5.309,0,22.628,1.722,22.628,23.883
		C53.256,47.406,37.246,66.54,30.626,73.787z"/>
	<path d="M30.629,14.669c-8.719,0-15.813,7.094-15.813,15.813c0,8.72,7.094,15.813,15.813,15.813c8.72,0,15.813-7.093,15.813-15.813
		C46.442,21.762,39.349,14.669,30.629,14.669z M30.629,40.296c-5.41,0-9.813-4.402-9.813-9.813c0-5.41,4.402-9.813,9.813-9.813
		s9.813,4.402,9.813,9.813C40.442,35.894,36.04,40.296,30.629,40.296z"/>
</g>
</svg>
