<?xml version="1.0" encoding="utf-8"?>
<!-- Generator: Adobe Illustrator 16.0.3, SVG Export Plug-In . SVG Version: 6.00 Build 0)  -->
<!DOCTYPE svg PUBLIC "-//W3C//DTD SVG 1.1//EN" "http://www.w3.org/Graphics/SVG/1.1/DTD/svg11.dtd">
<svg version="1.1" id="Layer_1" xmlns="http://www.w3.org/2000/svg" xmlns:xlink="http://www.w3.org/1999/xlink" x="0px" y="0px"
	 width="63.646px" height="90.799px" viewBox="0 0 63.646 90.799" enable-background="new 0 0 63.646 90.799" xml:space="preserve">
<g>
	<path d="M59.646,32.327h-2.358c0.017-6.186-0.983-17.443-7.695-24.941C45.207,2.485,39.229,0,31.823,0s-13.384,2.485-17.77,7.386
		c-6.712,7.498-7.712,18.756-7.695,24.941H4c-2.209,0-4,1.791-4,4v50.472c0,2.209,1.791,4,4,4h55.646c2.209,0,4-1.791,4-4V36.327
		C63.646,34.118,61.855,32.327,59.646,32.327z M20.03,12.704C22.871,9.539,26.729,8,31.823,8s8.952,1.539,11.793,4.704
		c4.963,5.528,5.684,14.626,5.666,19.623H14.364C14.347,27.33,15.067,18.232,20.03,12.704z M55.646,82.799H8V40.327h47.646V82.799z"
		/>
	<path d="M37.051,61.487c0.735-1.131,1.762-3.082,1.762-5.16c0-3.732-2.418-7.697-6.9-7.697c-4.481,0-6.9,3.965-6.9,7.697
		c0,2.084,1.06,4.039,1.821,5.174l-3.938,10.193c-0.238,0.615-0.157,1.307,0.216,1.852c0.373,0.543,0.99,0.869,1.648,0.869h14.304
		c0.657,0,1.271-0.324,1.646-0.865c0.373-0.541,0.457-1.23,0.225-1.846L37.051,61.487z M27.677,70.415l3.282-8.498
		c0.265-0.682,0.131-1.455-0.339-2.014c-0.418-0.496-1.61-2.221-1.61-3.576c0-0.037,0.079-3.697,2.901-3.697
		c2.821,0,2.9,3.66,2.9,3.697c0,1.373-1.155,3.105-1.557,3.598c-0.455,0.555-0.579,1.311-0.324,1.98l3.231,8.51H27.677z"/>
</g>
</svg>
