<?xml version="1.0" encoding="utf-8"?>
<!-- Generator: Adobe Illustrator 16.0.3, SVG Export Plug-In . SVG Version: 6.00 Build 0)  -->
<!DOCTYPE svg PUBLIC "-//W3C//DTD SVG 1.1//EN" "http://www.w3.org/Graphics/SVG/1.1/DTD/svg11.dtd">
<svg version="1.1" id="Layer_1" xmlns="http://www.w3.org/2000/svg" xmlns:xlink="http://www.w3.org/1999/xlink" x="0px" y="0px"
	 width="63.648px" height="90.799px" viewBox="0 0 63.648 90.799" enable-background="new 0 0 63.648 90.799" xml:space="preserve">
<g>
	<path d="M59.648,32.327h-45.3c-0.015-5.544,0.997-14.387,5.668-19.606C22.858,9.544,26.722,8,31.824,8
		c7.54,0,12.531,3.468,15.261,10.603c0.791,2.063,3.1,3.097,5.166,2.307c2.063-0.79,3.097-3.103,2.308-5.166
		C50.616,5.444,42.756,0,31.824,0c-7.405,0-13.384,2.485-17.77,7.386c-6.712,7.498-7.71,18.756-7.694,24.941H4c-2.209,0-4,1.791-4,4
		v50.472c0,2.209,1.791,4,4,4h55.648c2.209,0,4-1.791,4-4V36.327C63.648,34.118,61.857,32.327,59.648,32.327z M55.648,82.799H8
		V40.327h47.648V82.799z"/>
	<path d="M24.76,74.415h14.305c0.657,0,1.271-0.324,1.646-0.865c0.373-0.541,0.457-1.23,0.225-1.846l-3.883-10.217
		c0.735-1.131,1.762-3.082,1.762-5.16c0-3.732-2.418-7.697-6.9-7.697c-4.481,0-6.9,3.965-6.9,7.697c0,2.084,1.059,4.037,1.82,5.174
		l-3.938,10.193c-0.238,0.615-0.157,1.307,0.216,1.852C23.483,74.088,24.101,74.415,24.76,74.415z M30.621,59.903
		c-0.418-0.496-1.609-2.221-1.609-3.576c0-0.037,0.078-3.697,2.9-3.697c2.821,0,2.9,3.66,2.9,3.697c0,1.373-1.155,3.105-1.557,3.598
		c-0.455,0.555-0.579,1.311-0.324,1.98l3.231,8.51h-8.487l3.283-8.498C31.224,61.235,31.091,60.461,30.621,59.903z"/>
</g>
</svg>
