<?xml version="1.0" encoding="utf-8"?>
<!-- Generator: Adobe Illustrator 16.0.3, SVG Export Plug-In . SVG Version: 6.00 Build 0)  -->
<!DOCTYPE svg PUBLIC "-//W3C//DTD SVG 1.1//EN" "http://www.w3.org/Graphics/SVG/1.1/DTD/svg11.dtd">
<svg version="1.1" id="Layer_1" xmlns="http://www.w3.org/2000/svg" xmlns:xlink="http://www.w3.org/1999/xlink" x="0px" y="0px"
	 width="94.398px" height="54.766px" viewBox="0 0 94.398 54.766" enable-background="new 0 0 94.398 54.766" xml:space="preserve">
<path d="M94.392,3.926c-0.002-0.153-0.024-0.308-0.046-0.461c-0.015-0.108-0.021-0.221-0.045-0.326
	c-0.028-0.131-0.077-0.257-0.119-0.385c-0.04-0.123-0.074-0.248-0.126-0.364c-0.046-0.104-0.109-0.201-0.164-0.303
	c-0.072-0.132-0.142-0.266-0.229-0.388c-0.016-0.021-0.023-0.045-0.039-0.066C93.568,1.558,93.5,1.499,93.44,1.429
	c-0.094-0.11-0.186-0.223-0.291-0.321c-0.093-0.089-0.192-0.165-0.294-0.243c-0.104-0.081-0.204-0.162-0.314-0.233
	c-0.109-0.068-0.226-0.126-0.339-0.184c-0.116-0.06-0.231-0.119-0.354-0.167c-0.121-0.047-0.246-0.08-0.371-0.115
	c-0.123-0.034-0.245-0.071-0.373-0.094c-0.144-0.026-0.288-0.034-0.433-0.044C90.579,0.021,90.492,0,90.399,0H4
	C3.908,0,3.823,0.021,3.733,0.027c-0.146,0.01-0.294,0.018-0.438,0.044C3.169,0.094,3.051,0.13,2.93,0.163
	c-0.129,0.036-0.257,0.07-0.381,0.118c-0.118,0.047-0.23,0.104-0.342,0.161C2.088,0.502,1.97,0.56,1.856,0.632
	C1.749,0.701,1.651,0.78,1.552,0.857c-0.104,0.081-0.208,0.16-0.305,0.252C1.144,1.208,1.054,1.317,0.962,1.426
	C0.901,1.497,0.831,1.557,0.775,1.633C0.76,1.654,0.751,1.677,0.736,1.699C0.649,1.821,0.581,1.954,0.508,2.086
	C0.452,2.188,0.39,2.285,0.344,2.389C0.292,2.506,0.259,2.631,0.218,2.753c-0.042,0.128-0.09,0.255-0.119,0.386
	c-0.023,0.105-0.03,0.217-0.045,0.326C0.033,3.618,0.011,3.771,0.008,3.926C0.007,3.951,0,3.975,0,4v46.766c0,2.209,1.791,4,4,4
	h86.398c2.209,0,4-1.791,4-4V4C94.399,3.975,94.393,3.951,94.392,3.926z M78.188,8L47.199,30.744L16.211,8H78.188z M8,46.765V11.897
	l36.832,27.034c0.705,0.516,1.536,0.774,2.367,0.774c0.83,0,1.661-0.26,2.366-0.774l36.833-27.034v34.868H8z"/>
</svg>
