<?xml version="1.0" encoding="utf-8"?>
<!-- Generator: Adobe Illustrator 16.0.3, SVG Export Plug-In . SVG Version: 6.00 Build 0)  -->
<!DOCTYPE svg PUBLIC "-//W3C//DTD SVG 1.1//EN" "http://www.w3.org/Graphics/SVG/1.1/DTD/svg11.dtd">
<svg version="1.1" id="Layer_1" xmlns="http://www.w3.org/2000/svg" xmlns:xlink="http://www.w3.org/1999/xlink" x="0px" y="0px"
	 width="89.801px" height="79.004px" viewBox="0 0 89.801 79.004" enable-background="new 0 0 89.801 79.004" xml:space="preserve">
<path d="M87.766,9.834L67.063,0.299c-0.061-0.028-0.127-0.035-0.188-0.06c-0.141-0.055-0.279-0.097-0.423-0.134
	c-0.142-0.035-0.28-0.065-0.423-0.083S65.745,0,65.604,0c-0.147,0-0.291,0.006-0.438,0.024c-0.142,0.018-0.274,0.046-0.413,0.081
	c-0.146,0.037-0.288,0.08-0.43,0.136C64.26,0.265,64.195,0.272,64.135,0.3L44.899,9.16L25.666,0.3
	c-0.061-0.028-0.126-0.035-0.187-0.059c-0.143-0.056-0.285-0.099-0.433-0.136c-0.136-0.034-0.271-0.063-0.409-0.08
	C24.49,0.006,24.346,0,24.197,0c-0.144,0-0.283,0.006-0.425,0.023c-0.143,0.018-0.281,0.047-0.422,0.083
	c-0.145,0.036-0.285,0.079-0.425,0.134c-0.062,0.024-0.127,0.032-0.188,0.06L2.036,9.834C0.795,10.406,0,11.647,0,13.014v62.49
	c0,1.191,0.607,2.305,1.612,2.947c0.572,0.365,1.229,0.553,1.888,0.553c0.498,0,0.998-0.105,1.464-0.32l19.237-8.86l19.233,8.86
	c0.003,0,0.006,0.002,0.008,0.002c0.207,0.096,0.421,0.162,0.639,0.215c0.053,0.012,0.104,0.022,0.156,0.033
	c0.219,0.043,0.439,0.07,0.662,0.07s0.443-0.027,0.662-0.07c0.053-0.011,0.104-0.021,0.156-0.033
	c0.217-0.053,0.432-0.119,0.639-0.215c0.002,0,0.004,0,0.008-0.002l19.234-8.86l19.238,8.86c0.466,0.215,0.966,0.32,1.464,0.32
	c0.659,0,1.315-0.188,1.888-0.553c1.006-0.645,1.612-1.756,1.612-2.947v-62.49C89.801,11.647,89.006,10.406,87.766,9.834z
	 M41.399,70.038l-13.697-6.312V8.945l13.697,6.31V70.038z M7,15.255l13.701-6.311v54.783L7,70.038V15.255z M48.398,15.255
	l13.699-6.31v54.784l-13.699,6.311V15.255z M82.801,70.038L69.1,63.729V8.944l13.701,6.311V70.038z"/>
</svg>
