<?xml version="1.0" encoding="utf-8"?>
<!-- Generator: Adobe Illustrator 16.0.3, SVG Export Plug-In . SVG Version: 6.00 Build 0)  -->
<!DOCTYPE svg PUBLIC "-//W3C//DTD SVG 1.1//EN" "http://www.w3.org/Graphics/SVG/1.1/DTD/svg11.dtd">
<svg version="1.1" id="Layer_1" xmlns="http://www.w3.org/2000/svg" xmlns:xlink="http://www.w3.org/1999/xlink" x="0px" y="0px"
	 width="72.02px" height="75.994px" viewBox="0 0 72.02 75.994" enable-background="new 0 0 72.02 75.994" xml:space="preserve">
<g>
	<path d="M49.499,34.858L6.48,0.862C5.276-0.089,3.638-0.269,2.257,0.4C0.877,1.068,0,2.467,0,4v67.994
		c0,1.532,0.877,2.932,2.257,3.6c0.555,0.269,1.149,0.4,1.742,0.4c0.884,0,1.761-0.293,2.481-0.862l43.019-33.997
		c0.96-0.758,1.521-1.913,1.521-3.138C51.019,36.773,50.459,35.617,49.499,34.858z M8,63.733V12.259l32.567,25.737L8,63.733z"/>
	<path d="M67.519,1.175c-2.485,0-4.5,2.015-4.5,4.5v65.458c0,2.484,2.015,4.5,4.5,4.5c2.484,0,4.5-2.016,4.5-4.5V5.675
		C72.019,3.189,70.004,1.175,67.519,1.175z"/>
</g>
</svg>
