<?xml version="1.0" encoding="utf-8"?>
<!-- Generator: Adobe Illustrator 16.0.3, SVG Export Plug-In . SVG Version: 6.00 Build 0)  -->
<!DOCTYPE svg PUBLIC "-//W3C//DTD SVG 1.1//EN" "http://www.w3.org/Graphics/SVG/1.1/DTD/svg11.dtd">
<svg version="1.1" id="Layer_1" xmlns="http://www.w3.org/2000/svg" xmlns:xlink="http://www.w3.org/1999/xlink" x="0px" y="0px"
	 width="99.137px" height="87.09px" viewBox="0 0 99.137 87.09" enable-background="new 0 0 99.137 87.09" xml:space="preserve">
<g>
	<path d="M83.771,24.002l-7.319,7.32c-1.759,1.757-1.759,4.605-0.001,6.364c0.879,0.879,2.03,1.318,3.183,1.318
		s2.303-0.439,3.182-1.318l15.004-15.002c0.845-0.844,1.318-1.989,1.318-3.182s-0.475-2.338-1.318-3.182L82.814,1.318
		c-1.758-1.758-4.605-1.757-6.363,0c-1.758,1.757-1.758,4.606,0.001,6.364l7.319,7.32h-7.196c-8.921,0-20.438,11.152-33.771,24.065
		C31.751,49.77,17.996,63.088,11.084,63.088H4.5c-2.485,0-4.5,2.016-4.5,4.5c0,2.486,2.015,4.5,4.5,4.5h6.584
		c10.556,0,23.877-12.898,37.979-26.557c9.905-9.592,22.233-21.53,27.511-21.53H83.771z"/>
	<path d="M82.814,49.405c-1.758-1.758-4.605-1.758-6.363,0s-1.758,4.605,0.001,6.363l7.319,7.32h-7.196
		c-4.336,0-11.341-6.226-17.565-12.06c-1.813-1.698-4.661-1.604-6.36,0.207c-1.699,1.813-1.606,4.661,0.206,6.361
		c10.028,9.397,16.779,14.489,23.721,14.489h7.196l-7.319,7.32c-1.759,1.758-1.759,4.605-0.001,6.363
		c0.879,0.879,2.03,1.318,3.183,1.318s2.303-0.439,3.182-1.318L97.82,70.768c0.845-0.844,1.318-1.988,1.318-3.182
		c0-1.194-0.475-2.338-1.318-3.183L82.814,49.405z"/>
	<path d="M4.5,24.002h6.584c5.261,0,12.987,6.417,19.132,12.006c0.862,0.785,1.946,1.171,3.027,1.171
		c1.223,0,2.44-0.496,3.328-1.472c1.674-1.838,1.538-4.684-0.3-6.357c-9.467-8.613-17.373-14.349-25.188-14.349H4.5
		c-2.485,0-4.5,2.015-4.5,4.5S2.015,24.002,4.5,24.002z"/>
</g>
</svg>
