<?xml version="1.0" encoding="utf-8"?>
<!-- Generator: Adobe Illustrator 16.0.3, SVG Export Plug-In . SVG Version: 6.00 Build 0)  -->
<!DOCTYPE svg PUBLIC "-//W3C//DTD SVG 1.1//EN" "http://www.w3.org/Graphics/SVG/1.1/DTD/svg11.dtd">
<svg version="1.1" id="Layer_1" xmlns="http://www.w3.org/2000/svg" xmlns:xlink="http://www.w3.org/1999/xlink" x="0px" y="0px"
	 width="72.732px" height="75.993px" viewBox="0 0 72.732 75.993" enable-background="new 0 0 72.732 75.993" xml:space="preserve">
<g>
	<path d="M70.476,0.399c-1.379-0.667-3.021-0.488-4.225,0.462L23.235,34.858c-0.96,0.759-1.521,1.915-1.521,3.138
		c0,1.225,0.561,2.381,1.521,3.139l43.017,33.996c0.722,0.57,1.598,0.861,2.481,0.861c0.593,0,1.188-0.132,1.742-0.398
		c1.38-0.67,2.257-2.067,2.257-3.602V4C72.732,2.466,71.855,1.068,70.476,0.399z M64.732,63.733L32.167,37.996l32.565-25.737V63.733
		z"/>
	<path d="M4.5,1.174c-2.484,0-4.5,2.015-4.5,4.5v65.458c0,2.486,2.016,4.5,4.5,4.5c2.485,0,4.5-2.014,4.5-4.5V5.674
		C9,3.189,6.985,1.174,4.5,1.174z"/>
</g>
</svg>
