<?xml version="1.0" encoding="utf-8"?>
<!-- Generator: Adobe Illustrator 16.0.3, SVG Export Plug-In . SVG Version: 6.00 Build 0)  -->
<!DOCTYPE svg PUBLIC "-//W3C//DTD SVG 1.1//EN" "http://www.w3.org/Graphics/SVG/1.1/DTD/svg11.dtd">
<svg version="1.1" id="Layer_1" xmlns="http://www.w3.org/2000/svg" xmlns:xlink="http://www.w3.org/1999/xlink" x="0px" y="0px"
	 width="80.295px" height="72.48px" viewBox="0 0 80.295 72.48" enable-background="new 0 0 80.295 72.48" xml:space="preserve">
<path d="M75.795,14.998H60.554c-2.486,0-4.5,2.015-4.5,4.5c0,2.484,2.014,4.5,4.5,4.5h10.741v39.483H9V23.998h23.787l-7.325,7.325
	c-1.758,1.757-1.758,4.605-0.001,6.363c0.879,0.879,2.031,1.318,3.183,1.318s2.303-0.439,3.182-1.318L46.83,22.685
	c0.844-0.844,1.317-1.989,1.317-3.182c0-1.193-0.475-2.338-1.317-3.183L31.825,1.318c-1.758-1.758-4.606-1.757-6.364,0
	c-1.757,1.758-1.757,4.606,0.001,6.364l7.315,7.315H4.5c-2.485,0-4.5,2.015-4.5,4.5v48.483c0,2.486,2.015,4.5,4.5,4.5h71.295
	c2.485,0,4.5-2.014,4.5-4.5V19.498C80.295,17.012,78.28,14.998,75.795,14.998z"/>
</svg>
