<?xml version="1.0" encoding="utf-8"?>
<!-- Generator: Adobe Illustrator 16.0.3, SVG Export Plug-In . SVG Version: 6.00 Build 0)  -->
<!DOCTYPE svg PUBLIC "-//W3C//DTD SVG 1.1//EN" "http://www.w3.org/Graphics/SVG/1.1/DTD/svg11.dtd">
<svg version="1.1" id="Layer_1" xmlns="http://www.w3.org/2000/svg" xmlns:xlink="http://www.w3.org/1999/xlink" x="0px" y="0px"
	 width="77.801px" height="71.16px" viewBox="0 0 77.801 71.16" enable-background="new 0 0 77.801 71.16" xml:space="preserve">
<g>
	<path d="M6.5,13h64.801c3.59,0,6.5-2.91,6.5-6.5s-2.91-6.5-6.5-6.5H6.5C2.91,0,0,2.91,0,6.5S2.91,13,6.5,13z"/>
	<path d="M71.301,29.078H6.5c-3.59,0-6.5,2.91-6.5,6.5c0,3.589,2.91,6.5,6.5,6.5h64.801c3.59,0,6.5-2.91,6.5-6.5
		C77.801,31.988,74.891,29.078,71.301,29.078z"/>
	<path d="M71.301,58.16H6.5c-3.59,0-6.5,2.909-6.5,6.5c0,3.59,2.91,6.5,6.5,6.5h64.801c3.59,0,6.5-2.91,6.5-6.5
		C77.801,61.069,74.891,58.16,71.301,58.16z"/>
</g>
</svg>
