<?xml version="1.0" encoding="utf-8"?>
<!-- Generator: Adobe Illustrator 16.0.3, SVG Export Plug-In . SVG Version: 6.00 Build 0)  -->
<!DOCTYPE svg PUBLIC "-//W3C//DTD SVG 1.1//EN" "http://www.w3.org/Graphics/SVG/1.1/DTD/svg11.dtd">
<svg version="1.1" id="Layer_1" xmlns="http://www.w3.org/2000/svg" xmlns:xlink="http://www.w3.org/1999/xlink" x="0px" y="0px"
	 width="90.801px" height="78.629px" viewBox="0 0 90.801 78.629" enable-background="new 0 0 90.801 78.629" xml:space="preserve">
<g>
	<path d="M86.801,0H4C1.791,0,0,1.791,0,4v50.094c0,2.21,1.791,4,4,4h46.704v16.535c0,1.677,1.045,3.177,2.618,3.754
		c0.451,0.166,0.918,0.246,1.381,0.246c1.15,0,2.271-0.496,3.046-1.405l16.29-19.13h12.762c2.209,0,4-1.79,4-4V4
		C90.801,1.791,89.01,0,86.801,0z M82.801,50.094H72.191c-1.172,0-2.285,0.517-3.045,1.406L58.704,63.763v-9.669
		c0-2.209-1.791-4-4-4H8V8h74.801V50.094z"/>
	<path d="M22.372,25.891h28.544c2.209,0,4-1.791,4-4s-1.791-4-4-4H22.372c-2.209,0-4,1.791-4,4S20.163,25.891,22.372,25.891z"/>
	<path d="M64.488,25.888c1.051,0,2.091-0.42,2.83-1.17c0.75-0.74,1.181-1.771,1.181-2.83c0-1.05-0.431-2.08-1.181-2.83
		c-0.739-0.74-1.77-1.17-2.83-1.17c-1.049,0-2.079,0.43-2.818,1.17c-0.75,0.75-1.171,1.78-1.171,2.83c0,1.06,0.421,2.09,1.171,2.83
		C62.409,25.468,63.449,25.888,64.488,25.888z"/>
</g>
</svg>
