<?xml version="1.0" encoding="utf-8"?>
<!-- Generator: Adobe Illustrator 16.0.3, SVG Export Plug-In . SVG Version: 6.00 Build 0)  -->
<!DOCTYPE svg PUBLIC "-//W3C//DTD SVG 1.1//EN" "http://www.w3.org/Graphics/SVG/1.1/DTD/svg11.dtd">
<svg version="1.1" id="Layer_1" xmlns="http://www.w3.org/2000/svg" xmlns:xlink="http://www.w3.org/1999/xlink" x="0px" y="0px"
	 width="55.182px" height="101.1px" viewBox="0 0 55.182 101.1" enable-background="new 0 0 55.182 101.1" xml:space="preserve">
<g>
	<path d="M20.705,67.677l13.501,0.104c0.01,0,0.046,0,0.056,0c4.827,0,9.601-4.729,9.637-9.546l0.371-48.44
		c0.036-4.763-4.781-9.655-9.546-9.692L21.168,0c-4.827,0-9.601,4.728-9.636,9.545l-0.371,48.438
		c-0.019,2.289,1.06,4.707,2.957,6.636C16.016,66.545,18.417,67.66,20.705,67.677z M19.529,9.666c0.099-0.55,1.145-1.58,1.636-1.666
		l13.438,0.099c0.551,0.099,1.581,1.146,1.668,1.635l-0.367,48.381c-0.098,0.544-1.122,1.557-1.678,1.667L20.828,59.68
		c-0.55-0.098-1.578-1.143-1.665-1.635L19.529,9.666z"/>
	<path d="M48.463,94.1l-17.71-0.136l0.076-9.879c0.015-1.934-1.54-3.512-3.475-3.526c-0.009,0-0.018,0-0.026,0
		c-1.92,0-3.484,1.55-3.499,3.475l-0.076,9.878L6.044,93.775c-0.009,0-0.019,0-0.027,0c-1.92,0-3.483,1.55-3.499,3.474
		c-0.015,1.934,1.54,3.512,3.475,3.526l21.209,0.162l0,0l0,0l21.21,0.163c0.009,0,0.018,0,0.026,0c1.92,0,3.484-1.55,3.499-3.474
		C51.952,95.694,50.397,94.115,48.463,94.1z"/>
	<path d="M51.708,31.843c-0.009,0-0.019,0-0.027,0c-1.92,0-3.484,1.549-3.499,3.473l-0.229,29.792
		c-0.014,1.728-0.698,3.347-1.93,4.558c-1.229,1.212-2.854,1.865-4.585,1.857L13.415,71.31c-1.728-0.014-3.346-0.699-4.558-1.93
		C7.647,68.15,6.987,66.522,7,64.795l0.228-29.793c0.016-1.934-1.54-3.512-3.474-3.527c-0.009,0-0.019,0-0.027,0
		c-1.92,0-3.483,1.549-3.499,3.474L0,64.742c-0.028,3.596,1.347,6.987,3.87,9.551c2.522,2.563,5.894,3.989,9.489,4.018l28.025,0.214
		c0.036,0,0.071,0.001,0.107,0.001c3.556,0,6.905-1.373,9.442-3.871c2.563-2.523,3.989-5.895,4.018-9.489l0.229-29.793
		C55.197,33.437,53.642,31.858,51.708,31.843z"/>
</g>
</svg>
