<?xml version="1.0" encoding="utf-8"?>
<!-- Generator: Adobe Illustrator 16.0.3, SVG Export Plug-In . SVG Version: 6.00 Build 0)  -->
<!DOCTYPE svg PUBLIC "-//W3C//DTD SVG 1.1//EN" "http://www.w3.org/Graphics/SVG/1.1/DTD/svg11.dtd">
<svg version="1.1" id="Layer_1" xmlns="http://www.w3.org/2000/svg" xmlns:xlink="http://www.w3.org/1999/xlink" x="0px" y="0px"
	 width="92.4px" height="53.805px" viewBox="0 0 92.4 53.805" enable-background="new 0 0 92.4 53.805" xml:space="preserve">
<g>
	<path d="M92.4,45.648V8.155C92.4,3.201,89.295,0,84.486,0H7.914C3.106,0,0,3.201,0,8.155v37.493c0,4.955,3.105,8.156,7.914,8.156
		h76.572C89.294,53.804,92.4,50.603,92.4,45.648z M7.914,47.804C6.59,47.804,6,47.493,6,45.648V8.155C6,6.153,6.793,6,7.914,6
		h76.572C85.607,6,86.4,6.153,86.4,8.155v37.493c0,1.846-0.59,2.156-1.914,2.156H7.914L7.914,47.804z"/>
	<path d="M81.576,42.795V11.01c0-1.104-0.896-2-2-2H22.717c-1.104,0-2,0.896-2,2v31.784c0,1.104,0.896,2,2,2h56.859
		C80.68,44.795,81.576,43.898,81.576,42.795z M24.717,40.795V13.01h52.859v27.784H24.717z"/>
	<path d="M18.049,26.902c0-1.189-0.479-2.351-1.318-3.181c-0.83-0.84-1.99-1.319-3.182-1.319c-1.18,0-2.34,0.479-3.18,1.319
		s-1.32,2-1.32,3.181s0.48,2.341,1.32,3.181c0.84,0.841,2,1.318,3.18,1.318c1.189,0,2.352-0.479,3.182-1.318
		C17.568,29.244,18.049,28.094,18.049,26.902z"/>
</g>
</svg>
