<?xml version="1.0" encoding="utf-8"?>
<!-- Generator: Adobe Illustrator 16.0.3, SVG Export Plug-In . SVG Version: 6.00 Build 0)  -->
<!DOCTYPE svg PUBLIC "-//W3C//DTD SVG 1.1//EN" "http://www.w3.org/Graphics/SVG/1.1/DTD/svg11.dtd">
<svg version="1.1" id="Layer_1" xmlns="http://www.w3.org/2000/svg" xmlns:xlink="http://www.w3.org/1999/xlink" x="0px" y="0px"
	 width="53.805px" height="92.4px" viewBox="0 0 53.805 92.4" enable-background="new 0 0 53.805 92.4" xml:space="preserve">
<g>
	<path d="M45.648,0H8.156C3.201,0,0,3.106,0,7.915v76.571C0,89.294,3.201,92.4,8.156,92.4h37.492c4.955,0,8.156-3.105,8.156-7.914
		V7.915C53.805,3.106,50.604,0,45.648,0z M47.805,84.486c0,1.324-0.312,1.914-2.156,1.914H8.156C6.154,86.4,6,85.607,6,84.486V7.915
		C6,6.794,6.154,6,8.156,6h37.492c1.846,0,2.156,0.591,2.156,1.915L47.805,84.486L47.805,84.486z"/>
	<path d="M42.795,10.824H11.01c-1.104,0-2,0.896-2,2v56.859c0,1.104,0.896,2,2,2h31.785c1.104,0,2-0.896,2-2V12.824
		C44.795,11.719,43.899,10.824,42.795,10.824z M40.795,67.683H13.01V14.824h27.785V67.683z"/>
	<path d="M26.903,74.351c-1.189,0-2.351,0.479-3.181,1.319c-0.84,0.83-1.319,1.99-1.319,3.181c0,1.18,0.479,2.34,1.319,3.18
		s2,1.32,3.181,1.32s2.341-0.48,3.181-1.32s1.319-2,1.319-3.18c0-1.189-0.479-2.351-1.319-3.181
		C29.243,74.832,28.093,74.351,26.903,74.351z"/>
</g>
</svg>
