<?xml version="1.0" encoding="utf-8"?>
<!-- Generator: Adobe Illustrator 16.0.3, SVG Export Plug-In . SVG Version: 6.00 Build 0)  -->
<!DOCTYPE svg PUBLIC "-//W3C//DTD SVG 1.1//EN" "http://www.w3.org/Graphics/SVG/1.1/DTD/svg11.dtd">
<svg version="1.1" id="Layer_1" xmlns="http://www.w3.org/2000/svg" xmlns:xlink="http://www.w3.org/1999/xlink" x="0px" y="0px"
	 width="109.551px" height="92.4px" viewBox="0 0 109.551 92.4" enable-background="new 0 0 109.551 92.4" xml:space="preserve">
<g>
	<path d="M99.261,0h-88.97C3.847,0,0,3.864,0,10.338v48.908c0,6.476,3.847,10.34,10.291,10.34h29.443v8.938l-10.361,8.563
		c-0.976,0.808-1.34,2.14-0.912,3.328c0.429,1.191,1.558,1.984,2.823,1.984h46.664c1.266,0,2.395-0.793,2.823-1.984
		c0.429-1.188,0.063-2.521-0.912-3.328L69.325,78.38v-8.795h29.937c6.444,0,10.29-3.865,10.29-10.34V10.338
		C109.551,3.864,105.706,0,99.261,0z M65.106,82.677L69.61,86.4H39.622l5.023-4.152c0.689-0.57,1.089-1.418,1.089-2.313V69.585
		h17.591v10.351C63.325,81.158,64.057,82.21,65.106,82.677z M103.551,59.246c0,3.205-1.122,4.34-4.29,4.34h-88.97
		C7.123,63.585,6,62.451,6,59.246V10.338C6,7.135,7.123,6,10.291,6h88.97c3.168,0,4.29,1.135,4.29,4.338V59.246z"/>
	<path d="M97.056,10.824h-85.05c-1.104,0-2,0.896-2,2v43.88c0,1.104,0.896,2,2,2h85.05c1.104,0,2-0.896,2-2v-43.88
		C99.056,11.719,98.161,10.824,97.056,10.824z M95.056,54.705h-81.05v-39.88h81.05V54.705z"/>
</g>
</svg>
