<?xml version="1.0" encoding="utf-8"?>
<!-- Generator: Adobe Illustrator 16.0.3, SVG Export Plug-In . SVG Version: 6.00 Build 0)  -->
<!DOCTYPE svg PUBLIC "-//W3C//DTD SVG 1.1//EN" "http://www.w3.org/Graphics/SVG/1.1/DTD/svg11.dtd">
<svg version="1.1" id="Layer_1" xmlns="http://www.w3.org/2000/svg" xmlns:xlink="http://www.w3.org/1999/xlink" x="0px" y="0px"
	 width="87.199px" height="87.678px" viewBox="0 0 87.199 87.678" enable-background="new 0 0 87.199 87.678" xml:space="preserve">
<path d="M86.027,41.296L72.691,27.962c-1.563-1.563-4.096-1.562-5.657,0s-1.562,4.095,0.001,5.657l6.505,6.504H47.646V13.658
	l6.504,6.506c0.781,0.781,1.805,1.172,2.828,1.172s2.047-0.391,2.828-1.171c1.563-1.562,1.563-4.094,0.002-5.657L46.477,1.172
	C45.725,0.421,44.708,0,43.646,0c-1.061,0-2.078,0.421-2.828,1.172L27.483,14.508c-1.563,1.562-1.563,4.095,0,5.657
	s4.096,1.562,5.656,0l6.507-6.507v26.467H13.658l6.506-6.504c1.563-1.562,1.563-4.094,0.001-5.657c-1.562-1.562-4.094-1.563-5.657,0
	L1.172,41.295C0.422,42.045,0,43.063,0,44.124c0,1.061,0.422,2.079,1.172,2.829l13.336,13.334c0.781,0.78,1.805,1.171,2.828,1.171
	s2.048-0.391,2.829-1.172c1.562-1.563,1.562-4.094-0.001-5.656l-6.507-6.506h25.989v25.898l-6.506-6.508
	c-1.562-1.563-4.094-1.563-5.657-0.003c-1.563,1.563-1.563,4.097-0.001,5.658l13.333,13.336c0.751,0.75,1.768,1.172,2.829,1.172
	s2.079-0.422,2.829-1.172L59.809,73.17c1.563-1.563,1.563-4.096,0-5.655c-1.563-1.563-4.097-1.563-5.656,0l-6.506,6.504V48.124
	h25.896l-6.507,6.506c-1.563,1.563-1.563,4.094-0.001,5.656c0.781,0.781,1.805,1.172,2.828,1.172s2.048-0.391,2.828-1.171
	l13.336-13.333c0.75-0.75,1.173-1.768,1.173-2.829C87.2,43.064,86.777,42.046,86.027,41.296z"/>
</svg>
