<?xml version="1.0" encoding="utf-8"?>
<!-- Generator: Adobe Illustrator 16.0.3, SVG Export Plug-In . SVG Version: 6.00 Build 0)  -->
<!DOCTYPE svg PUBLIC "-//W3C//DTD SVG 1.1//EN" "http://www.w3.org/Graphics/SVG/1.1/DTD/svg11.dtd">
<svg version="1.1" id="Layer_1" xmlns="http://www.w3.org/2000/svg" xmlns:xlink="http://www.w3.org/1999/xlink" x="0px" y="0px"
	 width="89.734px" height="90.8px" viewBox="0 0 89.734 90.8" enable-background="new 0 0 89.734 90.8" xml:space="preserve">
<path d="M89.735,4.03c0.01-1.213-0.531-2.365-1.473-3.131s-2.178-1.064-3.363-0.812L32.292,11.331
	c-1.834,0.392-3.149,2.005-3.164,3.881l-0.362,47.11c-2.932-1.744-6.48-2.783-10.313-2.813l-0.17-0.002
	C8.267,59.507,0.066,66.464,0,75.015c-0.065,8.625,8.104,15.706,18.212,15.783L18.38,90.8c10.018,0,18.221-6.955,18.287-15.506l0,0
	l0,0l0.314-41.065l44.595-9.53l-0.203,26.38c-2.933-1.744-6.482-2.785-10.314-2.813l-0.17-0.001
	c-10.017,0-18.219,6.956-18.284,15.506c-0.064,8.627,8.105,15.708,18.214,15.786l0.167,0.001c9.237,0,16.916-5.918,18.112-13.543
	c0.098-0.342,0.167-0.693,0.17-1.066L89.735,4.03z M18.38,82.8l-0.106-0.002C12.673,82.755,7.969,79.218,8,75.076
	c0.03-4.173,4.645-7.566,10.282-7.566h0.107c5.603,0.043,10.309,3.58,10.276,7.726C28.635,79.406,24.02,82.8,18.38,82.8z
	 M37.03,28.084l0.074-9.601l44.593-9.53l-0.072,9.602L37.03,28.084z M70.986,71.558l-0.104-0.001
	c-5.603-0.043-10.307-3.581-10.275-7.726c0.031-4.172,4.646-7.566,10.284-7.566l0.108,0.001c5.603,0.043,10.309,3.581,10.276,7.726
	C81.243,68.164,76.627,71.558,70.986,71.558z"/>
</svg>
