<?xml version="1.0" encoding="utf-8"?>
<!-- Generator: Adobe Illustrator 16.0.3, SVG Export Plug-In . SVG Version: 6.00 Build 0)  -->
<!DOCTYPE svg PUBLIC "-//W3C//DTD SVG 1.1//EN" "http://www.w3.org/Graphics/SVG/1.1/DTD/svg11.dtd">
<svg version="1.1" id="Layer_1" xmlns="http://www.w3.org/2000/svg" xmlns:xlink="http://www.w3.org/1999/xlink" x="0px" y="0px"
	 width="87.204px" height="87.201px" viewBox="0 0 87.204 87.201" enable-background="new 0 0 87.204 87.201" xml:space="preserve">
<path d="M84.741,11.134c-0.066-0.065-0.134-0.128-0.203-0.188L74.159,1.908C72.862,0.677,71.11,0,69.206,0
	c-2.178,0-4.289,0.863-5.791,2.368c-0.107,0.108-0.209,0.223-0.305,0.342L52.917,15.577c-2.709,2.913-2.646,7.489,0.188,10.326
	c0.188,0.188,0.395,0.356,0.613,0.504l5.135,3.416c-0.475,1.854-3.251,7.071-12.598,16.417c-9.272,9.272-14.543,12.088-16.423,12.59
	l-3.409-5.125c-0.146-0.222-0.315-0.427-0.503-0.613c-1.406-1.403-3.275-2.18-5.263-2.18c-1.896,0-3.685,0.705-5.066,1.989
	L2.725,63.093c-0.122,0.098-0.237,0.199-0.347,0.311c-2.991,2.994-3.182,7.871-0.453,10.74l9.034,10.379
	c0.062,0.07,0.124,0.14,0.189,0.203c1.643,1.644,4.16,2.476,7.482,2.476c0.001,0,0.001,0,0.001,0
	c10.59,0,29.428-8.119,44.946-23.638c8.885-8.887,16.084-19.641,20.271-30.284C85.804,28.31,89.806,16.2,84.741,11.134z
	 M57.92,57.908C43.233,72.593,26.104,79.201,18.632,79.201c-1.128,0-1.69-0.152-1.898-0.229l-8.64-9.926l12.396-9.818l3.308,4.974
	c0.068,0.104,0.143,0.202,0.221,0.301c1.26,1.558,3.136,2.416,5.282,2.416h0.001c5.037,0,12.646-5.056,22.611-15.021
	C62.136,41.674,67.185,33.924,66.92,28.863c-0.104-1.962-0.957-3.688-2.404-4.859c-0.098-0.079-0.197-0.152-0.301-0.222
	l-4.973-3.309l9.819-12.395l9.937,8.651C80.564,20.219,75.604,40.223,57.92,57.908z"/>
</svg>
