<?xml version="1.0" encoding="utf-8"?>
<!-- Generator: Adobe Illustrator 16.0.3, SVG Export Plug-In . SVG Version: 6.00 Build 0)  -->
<!DOCTYPE svg PUBLIC "-//W3C//DTD SVG 1.1//EN" "http://www.w3.org/Graphics/SVG/1.1/DTD/svg11.dtd">
<svg version="1.1" id="Layer_1" xmlns="http://www.w3.org/2000/svg" xmlns:xlink="http://www.w3.org/1999/xlink" x="0px" y="0px"
	 width="69.6px" height="69.6px" viewBox="0 0 69.6 69.6" enable-background="new 0 0 69.6 69.6" xml:space="preserve">
<path d="M63.6,28.8H40.8V6c0-3.313-2.688-6-6-6c-3.313,0-6,2.688-6,6v22.8H6c-3.313,0-6,2.688-6,6c0,3.313,2.687,6,6,6h22.8v22.8
	c0,3.313,2.687,6,6,6c3.313,0,6-2.687,6-6V40.8h22.8c3.313,0,6-2.688,6-6C69.6,31.486,66.913,28.8,63.6,28.8z"/>
</svg>
