<?xml version="1.0" encoding="utf-8"?>
<!-- Generator: Adobe Illustrator 16.0.3, SVG Export Plug-In . SVG Version: 6.00 Build 0)  -->
<!DOCTYPE svg PUBLIC "-//W3C//DTD SVG 1.1//EN" "http://www.w3.org/Graphics/SVG/1.1/DTD/svg11.dtd">
<svg version="1.1" id="Layer_1" xmlns="http://www.w3.org/2000/svg" xmlns:xlink="http://www.w3.org/1999/xlink" x="0px" y="0px"
	 width="101.6px" height="59.025px" viewBox="0 0 101.6 59.025" enable-background="new 0 0 101.6 59.025" xml:space="preserve">
<g>
	<path d="M100.918,27.278C100.167,26.165,82.188,0,50.8,0S1.433,26.165,0.682,27.278c-0.909,1.352-0.909,3.119,0,4.469
		C1.433,32.86,19.412,59.026,50.8,59.026s49.367-26.166,50.118-27.278C101.827,30.397,101.827,28.629,100.918,27.278z M50.8,51.026
		c-22.045,0-36.929-15.61-41.771-21.52C13.855,23.588,28.671,8,50.8,8c22.045,0,36.929,15.61,41.77,21.52
		C87.744,35.438,72.929,51.026,50.8,51.026z"/>
	<path d="M50.788,10.82c-4.076,0-7.957,1.299-11.226,3.754c-8.234,6.193-9.896,17.937-3.702,26.173
		c3.565,4.739,9.016,7.457,14.951,7.457c4.076,0,7.956-1.297,11.222-3.752c3.989-3,6.572-7.375,7.272-12.318
		c0.699-4.945-0.567-9.865-3.568-13.856C62.175,13.538,56.726,10.82,50.788,10.82z M63.366,31.292
		c-0.477,3.356-2.229,6.326-4.939,8.363c-2.217,1.668-4.85,2.549-7.614,2.549c-4.033,0-7.734-1.847-10.155-5.063
		c-4.206-5.594-3.078-13.566,2.514-17.771c2.218-1.667,4.853-2.55,7.618-2.55c4.034,0,7.734,1.847,10.153,5.063
		C62.98,24.593,63.841,27.935,63.366,31.292z"/>
	<path d="M55.064,21.259c-1.05,0-2.08,0.43-2.83,1.17c-0.738,0.75-1.17,1.78-1.17,2.83s0.432,2.09,1.17,2.83
		c0.74,0.74,1.78,1.169,2.83,1.169s2.08-0.429,2.83-1.169c0.74-0.74,1.17-1.78,1.17-2.83s-0.43-2.08-1.17-2.83
		C57.145,21.688,56.114,21.259,55.064,21.259z"/>
</g>
</svg>
