<?xml version="1.0" encoding="utf-8"?>
<!-- Generator: Adobe Illustrator 16.0.3, SVG Export Plug-In . SVG Version: 6.00 Build 0)  -->
<!DOCTYPE svg PUBLIC "-//W3C//DTD SVG 1.1//EN" "http://www.w3.org/Graphics/SVG/1.1/DTD/svg11.dtd">
<svg version="1.1" id="Layer_1" xmlns="http://www.w3.org/2000/svg" xmlns:xlink="http://www.w3.org/1999/xlink" x="0px" y="0px"
	 width="94.398px" height="89.5px" viewBox="0 0 94.398 89.5" enable-background="new 0 0 94.398 89.5" xml:space="preserve">
<g>
	<path d="M90.399,14.815H69.723V2.5c0-1.381-1.119-2.5-2.5-2.5H27.178c-1.381,0-2.5,1.119-2.5,2.5v12.315H4c-2.209,0-4,1.791-4,4
		v46.996c0,2.209,1.791,4,4,4h15.691l-2.479,16.233c-0.132,0.865,0.12,1.744,0.688,2.406c0.57,0.664,1.401,1.047,2.276,1.047h54.045
		c0,0,0.016,0,0.021,0c1.656,0,3-1.344,3-3c0-0.274-0.037-0.543-0.106-0.797L74.708,69.81h15.69c2.209,0,4-1.791,4-4V18.815
		C94.399,16.606,92.608,14.815,90.399,14.815z M29.678,5h35.045v9.815H29.678V5z M23.671,83.5l4.083-26.728h38.893L70.73,83.5
		H23.671z M86.399,61.811H73.485l-1.297-8.492c-0.224-1.465-1.483-2.547-2.966-2.547H25.178c-1.481,0-2.742,1.082-2.966,2.547
		l-1.297,8.492H8V22.815h78.398V61.811z"/>
	<path d="M21.815,36.147h9.683c1.656,0,3-1.343,3-3c0-1.657-1.344-3-3-3h-9.683c-1.656,0-3,1.343-3,3
		C18.815,34.804,20.158,36.147,21.815,36.147z"/>
</g>
</svg>
