<?xml version="1.0" encoding="utf-8"?>
<!-- Generator: Adobe Illustrator 16.0.3, SVG Export Plug-In . SVG Version: 6.00 Build 0)  -->
<!DOCTYPE svg PUBLIC "-//W3C//DTD SVG 1.1//EN" "http://www.w3.org/Graphics/SVG/1.1/DTD/svg11.dtd">
<svg version="1.1" id="Layer_1" xmlns="http://www.w3.org/2000/svg" xmlns:xlink="http://www.w3.org/1999/xlink" x="0px" y="0px"
	 width="87.199px" height="87.2px" viewBox="0 0 87.199 87.2" enable-background="new 0 0 87.199 87.2" xml:space="preserve">
<g>
	<path d="M43.253,16.241c-14.691,0-17.908,10.82-17.908,14.989c0,2.209,1.791,4.027,4,4.027s3.999-1.764,3.999-3.973
		c0.049-1.652,0.904-7.044,9.909-7.044c4.423,0,7.688,1.155,9.71,3.433c2.491,2.808,2.36,6.437,2.188,7.865
		c-0.51,4.249-2.871,6.403-7.018,6.403c-7.34,0-8.881,4.005-8.881,7.367v3.366c0,2.209,1.791,4,4,4s4-1.791,4-4v-2.705
		c0.232-0.018,0.523-0.028,0.881-0.028c6.451,0,13.77-3.532,14.961-13.449c0.637-5.291-0.876-10.441-4.146-14.128
		C56.471,19.571,51.734,16.241,43.253,16.241z"/>
	<path d="M43.252,60.633c-1.319,0-2.609,0.541-3.54,1.471c-0.93,0.93-1.46,2.221-1.46,3.539c0,1.311,0.53,2.602,1.46,3.531
		c0.94,0.93,2.23,1.469,3.54,1.469c1.311,0,2.602-0.539,3.54-1.469c0.931-0.93,1.46-2.221,1.46-3.531
		c0-1.318-0.529-2.609-1.46-3.539C45.854,61.174,44.572,60.633,43.252,60.633z"/>
	<path d="M43.6,0C19.559,0,0,19.559,0,43.6s19.559,43.6,43.6,43.6c24.041,0,43.6-19.559,43.6-43.6C87.199,19.559,67.641,0,43.6,0z
		 M43.6,79.2C23.97,79.2,8,63.229,8,43.6C8,23.97,23.97,8,43.6,8c19.63,0,35.6,15.97,35.6,35.6C79.199,63.229,63.229,79.2,43.6,79.2
		z"/>
</g>
</svg>
