<?xml version="1.0" encoding="utf-8"?>
<!-- Generator: Adobe Illustrator 16.0.3, SVG Export Plug-In . SVG Version: 6.00 Build 0)  -->
<!DOCTYPE svg PUBLIC "-//W3C//DTD SVG 1.1//EN" "http://www.w3.org/Graphics/SVG/1.1/DTD/svg11.dtd">
<svg version="1.1" id="Layer_1" xmlns="http://www.w3.org/2000/svg" xmlns:xlink="http://www.w3.org/1999/xlink" x="0px" y="0px"
	 width="89.188px" height="68.598px" viewBox="0 0 89.188 68.598" enable-background="new 0 0 89.188 68.598" xml:space="preserve">
<path d="M85.187,68.597c-1.41,0-2.748-0.748-3.474-2.018c-7.941-13.898-28.405-15.975-39.897-15.975
	c-1.325,0-2.512,0.028-3.518,0.068v13.921c0,1.618-0.975,3.076-2.47,3.695c-1.494,0.619-3.216,0.276-4.357-0.866
	c0,0-29.031-29.03-30.257-30.256c-0.198-0.192-0.381-0.41-0.54-0.647c-1.061-1.586-0.853-3.702,0.497-5.052l30.3-30.298
	c1.143-1.144,2.865-1.485,4.357-0.866c1.495,0.618,2.47,2.077,2.47,3.694V17.75c15.797,0.696,28.311,5.58,37.241,14.545
	c13.562,13.612,13.649,31.558,13.646,32.314c-0.007,1.812-1.229,3.392-2.98,3.854C85.867,68.552,85.524,68.597,85.187,68.597z
	 M9.657,34.298l20.642,20.642v-8.008c0-2.041,1.536-3.755,3.564-3.978c0.13-0.014,3.238-0.349,7.952-0.349
	c9.825,0,25.417,1.435,36.861,9.31c-4.15-11.373-15.164-26.25-44.379-26.25c-2.209,0-4-1.791-4-4v-8.008L9.657,34.298z"/>
</svg>
