<?xml version="1.0" encoding="utf-8"?>
<!-- Generator: Adobe Illustrator 16.0.3, SVG Export Plug-In . SVG Version: 6.00 Build 0)  -->
<!DOCTYPE svg PUBLIC "-//W3C//DTD SVG 1.1//EN" "http://www.w3.org/Graphics/SVG/1.1/DTD/svg11.dtd">
<svg version="1.1" id="Layer_1" xmlns="http://www.w3.org/2000/svg" xmlns:xlink="http://www.w3.org/1999/xlink" x="0px" y="0px"
	 width="111.172px" height="68.598px" viewBox="0 0 111.172 68.598" enable-background="new 0 0 111.172 68.598"
	 xml:space="preserve">
<g>
	<path d="M53.13,67.352c1.144,1.145,2.867,1.485,4.358,0.866c1.494-0.619,2.47-2.077,2.47-3.695v-13.92
		c1.005-0.041,2.19-0.069,3.517-0.069c11.492,0,31.957,2.075,39.898,15.975c0.725,1.269,2.063,2.017,3.473,2.017
		c0.338,0,0.682-0.043,1.021-0.132c1.751-0.463,2.974-2.043,2.979-3.854c0.004-0.758-0.086-18.703-13.646-32.314
		c-8.933-8.965-21.445-13.85-37.241-14.545V3.927c0-1.618-0.975-3.076-2.471-3.695c-1.493-0.621-3.215-0.275-4.357,0.867
		l-30.3,30.298c-1.35,1.351-1.558,3.465-0.497,5.053c0.159,0.237,0.34,0.453,0.539,0.646C24.084,38.307,53.13,67.352,53.13,67.352z
		 M31.317,34.226l20.642-20.642v8.008c0,2.209,1.791,4,4,4c29.214,0,40.229,14.878,44.379,26.251
		c-11.445-7.875-27.037-9.311-36.861-9.311c-4.715,0-7.823,0.336-7.953,0.35c-2.028,0.223-3.564,1.936-3.564,3.977v8.009
		L31.317,34.226z"/>
	<path d="M9.317,34.227L9.317,34.227L9.317,34.227l27.47-27.471c1.563-1.563,1.563-4.095,0-5.657c-1.561-1.562-4.094-1.562-5.656,0
		l-30.3,30.298c-0.772,0.773-1.157,1.797-1.157,2.829c0,1.031,0.385,2.058,1.157,2.829L31.13,67.353
		c1.563,1.563,4.096,1.563,5.656,0c1.563-1.563,1.563-4.095,0-5.655L9.317,34.227z"/>
</g>
</svg>
