<?xml version="1.0" encoding="utf-8"?>
<!-- Generator: Adobe Illustrator 16.0.3, SVG Export Plug-In . SVG Version: 6.00 Build 0)  -->
<!DOCTYPE svg PUBLIC "-//W3C//DTD SVG 1.1//EN" "http://www.w3.org/Graphics/SVG/1.1/DTD/svg11.dtd">
<svg version="1.1" id="Layer_1" xmlns="http://www.w3.org/2000/svg" xmlns:xlink="http://www.w3.org/1999/xlink" x="0px" y="0px"
	 width="86.402px" height="72.482px" viewBox="0 0 86.402 72.482" enable-background="new 0 0 86.402 72.482" xml:space="preserve">
<path d="M81.902,15.002H15.364l7.321-7.319c1.758-1.758,1.758-4.606,0.001-6.364c-1.758-1.758-4.606-1.757-6.364,0L1.318,16.32
	C0.475,17.164,0,18.309,0,19.502c0,1.193,0.476,2.338,1.318,3.183l15.004,15.002c0.879,0.879,2.03,1.316,3.182,1.316
	c1.152,0,2.305-0.438,3.184-1.317c1.757-1.758,1.757-4.606-0.001-6.364l-7.321-7.32h62.038v39.48H10.611c-2.485,0-4.5,2.015-4.5,4.5
	c0,2.484,2.015,4.5,4.5,4.5h71.291c2.485,0,4.5-2.016,4.5-4.5v-48.48C86.402,17.017,84.388,15.002,81.902,15.002z"/>
</svg>
