<?xml version="1.0" encoding="utf-8"?>
<!-- Generator: Adobe Illustrator 16.0.3, SVG Export Plug-In . SVG Version: 6.00 Build 0)  -->
<!DOCTYPE svg PUBLIC "-//W3C//DTD SVG 1.1//EN" "http://www.w3.org/Graphics/SVG/1.1/DTD/svg11.dtd">
<svg version="1.1" id="Layer_1" xmlns="http://www.w3.org/2000/svg" xmlns:xlink="http://www.w3.org/1999/xlink" x="0px" y="0px"
	 width="102.602px" height="53.954px" viewBox="0 0 102.602 53.954" enable-background="new 0 0 102.602 53.954"
	 xml:space="preserve">
<g>
	<path d="M101.283,32.277c-1.758-1.758-4.606-1.757-6.364,0.001l-6.31,6.311V4.5c0-2.485-2.015-4.5-4.5-4.5H40.056
		c-2.485,0-4.5,2.015-4.5,4.5s2.015,4.5,4.5,4.5h39.553v29.588l-6.311-6.312c-1.758-1.758-4.605-1.758-6.363-0.001
		c-1.758,1.758-1.759,4.605-0.001,6.364l13.991,13.993c0.846,0.845,1.989,1.318,3.184,1.318s2.338-0.475,3.183-1.318l13.992-13.993
		C103.041,36.883,103.041,34.034,101.283,32.277z"/>
	<path d="M62.545,44.954H22.993V15.366l6.311,6.311c0.879,0.879,2.03,1.318,3.183,1.318s2.303-0.439,3.182-1.318
		c1.758-1.757,1.758-4.606,0.001-6.364L21.675,1.319c-0.845-0.844-1.988-1.318-3.183-1.318s-2.338,0.474-3.183,1.318L1.318,15.313
		c-1.757,1.757-1.757,4.606,0.001,6.364c1.758,1.758,4.605,1.757,6.364,0l6.31-6.311v34.087c0,2.485,2.015,4.5,4.5,4.5h44.053
		c2.485,0,4.5-2.015,4.5-4.5C67.045,46.969,65.031,44.954,62.545,44.954z"/>
</g>
</svg>
