<?xml version="1.0" encoding="utf-8"?>
<!-- Generator: Adobe Illustrator 16.0.3, SVG Export Plug-In . SVG Version: 6.00 Build 0)  -->
<!DOCTYPE svg PUBLIC "-//W3C//DTD SVG 1.1//EN" "http://www.w3.org/Graphics/SVG/1.1/DTD/svg11.dtd">
<svg version="1.1" id="Layer_1" xmlns="http://www.w3.org/2000/svg" xmlns:xlink="http://www.w3.org/1999/xlink" x="0px" y="0px"
	 width="79.684px" height="80.5px" viewBox="0 0 79.684 80.5" enable-background="new 0 0 79.684 80.5" xml:space="preserve">
<g>
	<path d="M50.915,0C35.052,0,22.145,12.905,22.145,28.768c0,6.521,2.185,12.539,5.854,17.369L1.318,72.818
		c-1.758,1.758-1.758,4.606,0,6.363C2.196,80.061,3.349,80.5,4.5,80.5c1.15,0,2.304-0.439,3.182-1.318l26.813-26.813
		c4.659,3.252,10.318,5.168,16.421,5.168c15.862,0,28.769-12.906,28.769-28.77C79.684,12.905,66.778,0,50.915,0z M50.915,49.537
		c-11.452,0-20.771-9.317-20.771-20.77C30.146,17.316,39.463,8,50.915,8s20.769,9.316,20.769,20.768
		C71.684,40.22,62.367,49.537,50.915,49.537z"/>
	<path d="M56.823,14.447c-2.01-0.878-4.345,0.033-5.24,2.041c-0.896,2.006,0.009,4.366,2.009,5.277
		c0.203,0.093,4.987,2.321,4.438,6.38c-0.296,2.189,1.239,4.204,3.429,4.5c0.183,0.025,0.361,0.037,0.541,0.037
		c1.971,0,3.688-1.458,3.959-3.465C67.044,21.186,60.727,16.154,56.823,14.447z"/>
	<path d="M55.857,34.542c-1.06,0-2.09,0.43-2.83,1.18c-0.75,0.74-1.17,1.77-1.17,2.82c0,1.06,0.42,2.09,1.17,2.831
		c0.74,0.75,1.771,1.17,2.83,1.17c1.051,0,2.08-0.42,2.82-1.17c0.75-0.74,1.18-1.78,1.18-2.831c0-1.05-0.43-2.08-1.18-2.82
		C57.938,34.973,56.907,34.542,55.857,34.542z"/>
</g>
</svg>
