<?xml version="1.0" encoding="utf-8"?>
<!-- Generator: Adobe Illustrator 16.0.3, SVG Export Plug-In . SVG Version: 6.00 Build 0)  -->
<!DOCTYPE svg PUBLIC "-//W3C//DTD SVG 1.1//EN" "http://www.w3.org/Graphics/SVG/1.1/DTD/svg11.dtd">
<svg version="1.1" id="Layer_1" xmlns="http://www.w3.org/2000/svg" xmlns:xlink="http://www.w3.org/1999/xlink" x="0px" y="0px"
	 width="90.801px" height="86.748px" viewBox="0 0 90.801 86.748" enable-background="new 0 0 90.801 86.748" xml:space="preserve">
<path d="M70.986,86.748c-0.756,0-1.514-0.215-2.178-0.646L45.4,70.919L21.991,86.103c-1.396,0.906-3.208,0.854-4.55-0.137
	c-1.341-0.986-1.929-2.701-1.477-4.305l7.332-26.014L1.416,37.133c-1.241-1.051-1.723-2.748-1.219-4.294
	c0.504-1.546,1.894-2.633,3.516-2.749l26.241-1.891l11.808-25.86C42.412,0.914,43.834,0,45.4,0s2.989,0.914,3.639,2.339
	l11.809,25.86l26.24,1.891c1.622,0.116,3.012,1.203,3.516,2.749s0.022,3.243-1.219,4.294L67.504,55.647l7.332,26.015
	c0.452,1.604-0.136,3.317-1.477,4.305C72.654,86.485,71.82,86.748,70.986,86.748z M45.4,62.151c0.758,0,1.515,0.216,2.177,0.646
	l16.679,10.818l-5.148-18.273c-0.426-1.508,0.068-3.125,1.266-4.139l16.354-13.838l-18.819-1.356
	c-1.459-0.104-2.744-0.997-3.353-2.328L45.4,13.631L36.246,33.68c-0.607,1.331-1.893,2.224-3.352,2.328l-18.82,1.356l16.354,13.838
	c1.196,1.014,1.691,2.631,1.266,4.139l-5.149,18.273l16.679-10.818C43.886,62.367,44.643,62.151,45.4,62.151z"/>
</svg>
