<?xml version="1.0" encoding="utf-8"?>
<!-- Generator: Adobe Illustrator 16.0.3, SVG Export Plug-In . SVG Version: 6.00 Build 0)  -->
<!DOCTYPE svg PUBLIC "-//W3C//DTD SVG 1.1//EN" "http://www.w3.org/Graphics/SVG/1.1/DTD/svg11.dtd">
<svg version="1.1" id="Layer_1" xmlns="http://www.w3.org/2000/svg" xmlns:xlink="http://www.w3.org/1999/xlink" x="0px" y="0px"
	 width="71.387px" height="92.398px" viewBox="0 0 71.387 92.398" enable-background="new 0 0 71.387 92.398" xml:space="preserve">
<g>
	<path d="M63.531,0H7.855C3.083,0,0,2.944,0,7.501v77.397c0,4.558,3.083,7.5,7.854,7.5h55.676c4.772,0,7.855-2.942,7.855-7.5V7.501
		C71.387,2.944,68.304,0,63.531,0z M65.387,84.899c0,0.838,0,1.5-1.854,1.5H7.855C6,86.399,6,85.737,6,84.899V7.501
		C6,6.662,6,6,7.855,6h55.676c1.855,0,1.855,0.662,1.855,1.501L65.387,84.899L65.387,84.899z"/>
	<path d="M59.527,10.825H11.859c-1.104,0-2,0.896-2,2v60.407c0,1.104,0.896,2,2,2h47.668c1.104,0,2-0.896,2-2V12.825
		C61.527,11.721,60.632,10.825,59.527,10.825z M57.527,71.233H13.859V14.825h43.668V71.233z"/>
	<path d="M33.215,78.452c-0.649,0.649-1.021,1.551-1.021,2.479c0,0.92,0.37,1.82,1.021,2.471c0.65,0.648,1.551,1.029,2.479,1.029
		c0.921,0,1.82-0.381,2.471-1.029c0.649-0.649,1.029-1.551,1.029-2.471s-0.38-1.83-1.029-2.479
		C36.865,77.153,34.516,77.153,33.215,78.452z"/>
</g>
</svg>
