<?xml version="1.0" encoding="utf-8"?>
<!-- Generator: Adobe Illustrator 16.0.3, SVG Export Plug-In . SVG Version: 6.00 Build 0)  -->
<!DOCTYPE svg PUBLIC "-//W3C//DTD SVG 1.1//EN" "http://www.w3.org/Graphics/SVG/1.1/DTD/svg11.dtd">
<svg version="1.1" id="Layer_1" xmlns="http://www.w3.org/2000/svg" xmlns:xlink="http://www.w3.org/1999/xlink" x="0px" y="0px"
	 width="92.398px" height="71.387px" viewBox="0 0 92.398 71.387" enable-background="new 0 0 92.398 71.387" xml:space="preserve">
<g>
	<path d="M92.399,63.531V7.855C92.399,3.083,89.454,0,84.897,0H7.5C2.943,0,0,3.083,0,7.855v55.677c0,4.771,2.942,7.854,7.5,7.854
		h77.396C89.454,71.387,92.399,68.304,92.399,63.531z M7.5,65.387c-0.838,0-1.5,0-1.5-1.854V7.855C6,6,6.662,6,7.5,6h77.396
		c0.84,0,1.502,0,1.502,1.854v55.677c0,1.854-0.662,1.854-1.502,1.854L7.5,65.387L7.5,65.387z"/>
	<path d="M81.573,59.527V11.859c0-1.104-0.896-2-2-2H19.166c-1.104,0-2,0.896-2,2v47.668c0,1.104,0.896,2,2,2h60.407
		C80.679,61.527,81.573,60.632,81.573,59.527z M21.166,57.527V13.859h56.407v43.668H21.166z"/>
	<path d="M13.947,33.215c-0.649-0.649-1.551-1.021-2.479-1.021c-0.92,0-1.82,0.37-2.471,1.021c-0.648,0.65-1.029,1.551-1.029,2.479
		c0,0.921,0.381,1.82,1.029,2.471c0.649,0.649,1.551,1.029,2.471,1.029s1.83-0.38,2.479-1.029
		C15.246,36.865,15.246,34.516,13.947,33.215z"/>
</g>
</svg>
