<?xml version="1.0" encoding="utf-8"?>
<!-- Generator: Adobe Illustrator 16.0.3, SVG Export Plug-In . SVG Version: 6.00 Build 0)  -->
<!DOCTYPE svg PUBLIC "-//W3C//DTD SVG 1.1//EN" "http://www.w3.org/Graphics/SVG/1.1/DTD/svg11.dtd">
<svg version="1.1" id="Layer_1" xmlns="http://www.w3.org/2000/svg" xmlns:xlink="http://www.w3.org/1999/xlink" x="0px" y="0px"
	 width="95.398px" height="54.27px" viewBox="0 0 95.398 54.27" enable-background="new 0 0 95.398 54.27" xml:space="preserve">
<g>
	<path d="M90.899,0H30.255c-1.094,0-2.149,0.398-2.971,1.12L1.529,23.754C0.558,24.609,0,25.841,0,27.135
		c0,1.295,0.558,2.526,1.528,3.381l25.756,22.633c0.82,0.723,1.877,1.121,2.971,1.121H90.9c2.485,0,4.5-2.017,4.5-4.5V4.5
		C95.399,2.015,93.385,0,90.899,0z M86.399,45.269H31.951L11.316,27.135L31.951,9h54.447V45.269z"/>
	<path d="M25.518,27.137c0,1.71,0.7,3.38,1.91,4.59s2.88,1.908,4.59,1.908c1.72,0,3.391-0.698,4.601-1.908s1.899-2.88,1.899-4.59
		c0-1.711-0.689-3.391-1.899-4.601c-1.2-1.21-2.881-1.899-4.601-1.899c-1.71,0-3.38,0.689-4.59,1.899S25.518,25.427,25.518,27.137z"
		/>
</g>
</svg>
