<?xml version="1.0" encoding="utf-8"?>
<!-- Generator: Adobe Illustrator 16.0.3, SVG Export Plug-In . SVG Version: 6.00 Build 0)  -->
<!DOCTYPE svg PUBLIC "-//W3C//DTD SVG 1.1//EN" "http://www.w3.org/Graphics/SVG/1.1/DTD/svg11.dtd">
<svg version="1.1" id="Layer_1" xmlns="http://www.w3.org/2000/svg" xmlns:xlink="http://www.w3.org/1999/xlink" x="0px" y="0px"
	 width="88.521px" height="90.801px" viewBox="0 0 88.521 90.801" enable-background="new 0 0 88.521 90.801" xml:space="preserve">
<g>
	<path d="M88.398,46.098c-0.703-4.834-4.297-8.731-9.613-10.421c-2.813-0.896-7.587-2.087-11.47-3.013
		c7.12-10.19,8.521-20.723,5.872-26.752C71.537,2.155,68.414,0,64.62,0c-7.332,0-9.247,6.14-10.646,10.622
		c-0.207,0.665-0.421,1.351-0.655,2.049C52.02,16.533,45.508,23.5,36.002,28.803c-7.115,3.967-13.931,9.395-14.218,9.622
		c-0.95,0.759-1.503,1.909-1.503,3.125v38.533c0,1.287,0.618,2.494,1.662,3.246c5.727,4.125,25.924,7.473,36.071,7.473
		c5.277,0,7.354-0.829,8.46-1.452c4.555-2.576,10.613-17.156,15.045-29.425C86.625,56.055,89.122,51.075,88.398,46.098z
		 M75.928,54.092c-0.702,0.477-1.234,1.166-1.521,1.965c-3.964,11.099-9.645,24.17-11.932,26.34
		c-0.338,0.109-1.521,0.404-4.462,0.404c-9.481,0-24.201-2.826-29.733-5.107V43.515c2.31-1.747,6.956-5.126,11.616-7.725
		c10.371-5.784,18.813-14.051,21.005-20.57c0.253-0.755,0.485-1.496,0.709-2.215C63.173,8,63.566,8,64.62,8
		c0.279,0,0.747,0,1.243,1.13c1.719,3.913,0.188,13.725-8.597,23.288c-0.967,1.053-1.299,2.54-0.87,3.903
		c0.428,1.363,1.55,2.395,2.943,2.706c0.12,0.027,12.132,2.717,17.021,4.273c2.329,0.739,3.87,2.216,4.121,3.948
		C80.798,49.42,79.138,51.915,75.928,54.092z"/>
	<path d="M6.5,34.589c-3.59,0-6.5,2.91-6.5,6.5V80.42c0,3.59,2.91,6.5,6.5,6.5s6.5-2.91,6.5-6.5V41.089
		C13,37.499,10.09,34.589,6.5,34.589z"/>
</g>
</svg>
