<?xml version="1.0" encoding="utf-8"?>
<!-- Generator: Adobe Illustrator 16.0.3, SVG Export Plug-In . SVG Version: 6.00 Build 0)  -->
<!DOCTYPE svg PUBLIC "-//W3C//DTD SVG 1.1//EN" "http://www.w3.org/Graphics/SVG/1.1/DTD/svg11.dtd">
<svg version="1.1" id="Layer_1" xmlns="http://www.w3.org/2000/svg" xmlns:xlink="http://www.w3.org/1999/xlink" x="0px" y="0px"
	 width="88.521px" height="90.801px" viewBox="0 0 88.521 90.801" enable-background="new 0 0 88.521 90.801" xml:space="preserve">
<g>
	<path d="M0.123,44.703c0.703,4.836,4.297,8.732,9.613,10.422c2.813,0.895,7.587,2.086,11.47,3.012
		c-7.12,10.191-8.521,20.723-5.872,26.752c1.65,3.758,4.773,5.912,8.567,5.912c7.332,0,9.247-6.139,10.646-10.621
		c0.207-0.666,0.421-1.352,0.655-2.049c1.299-3.863,7.812-10.83,17.317-16.133c7.115-3.967,13.931-9.393,14.218-9.621
		c0.95-0.76,1.503-1.91,1.503-3.125V10.719c0-1.287-0.618-2.494-1.662-3.246C60.852,3.348,40.654,0,30.507,0
		c-5.277,0-7.354,0.83-8.46,1.453C17.492,4.029,11.433,18.609,7.002,30.877C1.896,34.746-0.601,39.727,0.123,44.703z M12.594,36.709
		c0.701-0.477,1.233-1.166,1.52-1.965c3.964-11.098,9.645-24.17,11.932-26.34C26.383,8.295,27.564,8,30.507,8
		c9.481,0,24.201,2.826,29.733,5.107v34.18c-2.31,1.746-6.956,5.125-11.616,7.725c-10.371,5.783-18.813,14.051-21.005,20.57
		c-0.253,0.754-0.485,1.496-0.709,2.215c-1.562,5.004-1.955,5.004-3.009,5.004c-0.279,0-0.747,0-1.243-1.129
		c-1.719-3.914-0.188-13.725,8.597-23.289c0.967-1.053,1.299-2.539,0.87-3.902c-0.428-1.362-1.55-2.395-2.943-2.707
		c-0.12-0.026-12.132-2.717-17.021-4.272c-2.329-0.737-3.87-2.215-4.121-3.947C7.724,41.381,9.384,38.887,12.594,36.709z"/>
	<path d="M82.021,56.213c3.59,0,6.5-2.91,6.5-6.5V10.381c0-3.59-2.91-6.5-6.5-6.5s-6.5,2.91-6.5,6.5v39.332
		C75.521,53.303,78.432,56.213,82.021,56.213z"/>
</g>
</svg>
