<?xml version="1.0" encoding="utf-8"?>
<!-- Generator: Adobe Illustrator 16.0.3, SVG Export Plug-In . SVG Version: 6.00 Build 0)  -->
<!DOCTYPE svg PUBLIC "-//W3C//DTD SVG 1.1//EN" "http://www.w3.org/Graphics/SVG/1.1/DTD/svg11.dtd">
<svg version="1.1" id="Layer_1" xmlns="http://www.w3.org/2000/svg" xmlns:xlink="http://www.w3.org/1999/xlink" x="0px" y="0px"
	 width="80.707px" height="85.701px" viewBox="0 0 80.707 85.701" enable-background="new 0 0 80.707 85.701" xml:space="preserve">
<g>
	<path d="M66.828,23.182c-2.209,0-4,1.791-4,4v50.519H17.879V27.182c0-2.209-1.791-4-4-4s-4,1.791-4,4v54.519c0,2.209,1.791,4,4,4
		h52.949c2.209,0,4-1.791,4-4V27.182C70.828,24.973,69.037,23.182,66.828,23.182z"/>
	<path d="M76.707,10.358H52.896V2.5c0-1.381-1.119-2.5-2.5-2.5H30.31c-1.381,0-2.5,1.119-2.5,2.5v7.858H4c-2.209,0-4,1.791-4,4
		s1.791,4,4,4h72.707c2.209,0,4-1.791,4-4S78.916,10.358,76.707,10.358z M32.81,5h15.086v5.358H32.81V5z"/>
	<path d="M30.836,69.306V29.938c0-1.381-1.119-2.5-2.5-2.5s-2.5,1.119-2.5,2.5v39.37c0,1.381,1.119,2.5,2.5,2.5
		S30.836,70.687,30.836,69.306z"/>
	<path d="M42.853,69.412V30.043c0-1.381-1.119-2.5-2.5-2.5s-2.5,1.119-2.5,2.5v39.369c0,1.381,1.119,2.5,2.5,2.5
		S42.853,70.792,42.853,69.412z"/>
	<path d="M54.727,69.517V30.148c0-1.381-1.119-2.5-2.5-2.5s-2.5,1.119-2.5,2.5v39.369c0,1.381,1.119,2.5,2.5,2.5
		S54.727,70.897,54.727,69.517z"/>
</g>
</svg>
