<?xml version="1.0" encoding="utf-8"?>
<!-- Generator: Adobe Illustrator 16.0.3, SVG Export Plug-In . SVG Version: 6.00 Build 0)  -->
<!DOCTYPE svg PUBLIC "-//W3C//DTD SVG 1.1//EN" "http://www.w3.org/Graphics/SVG/1.1/DTD/svg11.dtd">
<svg version="1.1" id="Layer_1" xmlns="http://www.w3.org/2000/svg" xmlns:xlink="http://www.w3.org/1999/xlink" x="0px" y="0px"
	 width="86.816px" height="89.201px" viewBox="0 0 86.816 89.201" enable-background="new 0 0 86.816 89.201" xml:space="preserve">
<g>
	<path d="M81.817,52.244c-2.762,0-5,2.237-5,5v21.957H10V57.244c0-2.763-2.238-5-5-5c-2.763,0-5,2.237-5,5v26.957
		c0,2.762,2.237,5,5,5h76.816c2.763,0,5-2.238,5-5V57.244C86.817,54.481,84.579,52.244,81.817,52.244z"/>
	<path d="M26.782,28.696L38.409,17.07v42.92c0,2.762,2.237,5,5,5c2.762,0,5-2.238,5-5V17.071l11.625,11.625
		c0.976,0.977,2.256,1.465,3.534,1.465c1.279,0,2.561-0.488,3.535-1.465c1.953-1.952,1.953-5.118,0-7.07L46.944,1.465
		C46.007,0.526,44.735,0,43.409,0c-1.326,0-2.599,0.526-3.535,1.465L19.712,21.626c-1.953,1.952-1.953,5.118,0,7.07
		C21.663,30.649,24.831,30.649,26.782,28.696z"/>
</g>
</svg>
