<?xml version="1.0" encoding="utf-8"?>
<!-- Generator: Adobe Illustrator 16.0.3, SVG Export Plug-In . SVG Version: 6.00 Build 0)  -->
<!DOCTYPE svg PUBLIC "-//W3C//DTD SVG 1.1//EN" "http://www.w3.org/Graphics/SVG/1.1/DTD/svg11.dtd">
<svg version="1.1" id="Layer_1" xmlns="http://www.w3.org/2000/svg" xmlns:xlink="http://www.w3.org/1999/xlink" x="0px" y="0px"
	 width="90.801px" height="84.482px" viewBox="0 0 90.801 84.482" enable-background="new 0 0 90.801 84.482" xml:space="preserve">
<g>
	<path d="M45.4,53.197c14.667,0,26.599-11.932,26.599-26.6C71.999,11.932,60.066,0,45.4,0C30.733,0,18.802,11.932,18.802,26.597
		C18.802,41.265,30.733,53.197,45.4,53.197z M45.4,8c10.254,0,18.599,8.343,18.599,18.598c0,10.257-8.345,18.6-18.599,18.6
		c-10.255,0-18.599-8.343-18.599-18.6C26.802,16.343,35.146,8,45.4,8z"/>
	<path d="M57.699,55.638c-1.311-0.416-2.744-0.13-3.793,0.76L45.4,63.591l-8.506-7.192c-1.049-0.89-2.485-1.176-3.793-0.76
		C27.574,57.392,0,66.833,0,80.482c0,2.209,1.791,4,4,4h82.801c2.209,0,4-1.791,4-4C90.801,66.833,63.227,57.392,57.699,55.638z
		 M10.165,76.482c4.394-4.521,14.671-9.541,23.277-12.527l9.375,7.93c1.49,1.263,3.676,1.263,5.166,0l9.375-7.93
		c8.606,2.986,18.885,8.006,23.277,12.527H10.165z"/>
</g>
</svg>
