<?xml version="1.0" encoding="utf-8"?>
<!-- Generator: Adobe Illustrator 16.0.3, SVG Export Plug-In . SVG Version: 6.00 Build 0)  -->
<!DOCTYPE svg PUBLIC "-//W3C//DTD SVG 1.1//EN" "http://www.w3.org/Graphics/SVG/1.1/DTD/svg11.dtd">
<svg version="1.1" id="Layer_1" xmlns="http://www.w3.org/2000/svg" xmlns:xlink="http://www.w3.org/1999/xlink" x="0px" y="0px"
	 width="100.6px" height="72.676px" viewBox="0 0 100.6 72.676" enable-background="new 0 0 100.6 72.676" xml:space="preserve">
<g>
	<path d="M39.007,46.219c12.743,0,23.11-10.367,23.11-23.11C62.117,10.367,51.75,0,39.007,0s-23.11,10.367-23.11,23.109
		C15.896,35.853,26.264,46.219,39.007,46.219z M39.007,8c8.332,0,15.11,6.778,15.11,15.109c0,8.332-6.778,15.11-15.11,15.11
		s-15.11-6.778-15.11-15.11C23.896,14.778,30.675,8,39.007,8z"/>
	<path d="M49.594,47.079c-1.31-0.418-2.744-0.131-3.793,0.758l-6.794,5.748l-6.792-5.748c-1.052-0.889-2.486-1.176-3.794-0.758
		C21.754,49.193,0,57.006,0,68.676c0,2.209,1.791,4,4,4h70.015c2.209,0,4-1.791,4-4C78.015,57.006,56.261,49.193,49.594,47.079z
		 M10.76,64.676c3.803-3.217,10.984-6.822,18.005-9.279l7.658,6.48c1.492,1.262,3.677,1.262,5.167,0l7.66-6.48
		c7.021,2.457,14.201,6.063,18.005,9.279H10.76z"/>
	<path d="M87.095,46.816c-1.481-0.733-3.28-0.129-4.018,1.354c-0.736,1.481-0.132,3.283,1.351,4.021
		c2.447,1.22,6.813,4.033,8.94,6.892H82.704c-1.657,0-3,1.342-3,3c0,1.656,1.343,3,3,3H97.6c1.657,0,3-1.344,3-3
		C100.6,53.749,88.477,47.502,87.095,46.816z"/>
	<path d="M72.226,41.7c-2.455,0-4.763-0.955-6.498-2.691c-1.172-1.172-3.07-1.172-4.243-0.002c-1.172,1.173-1.172,3.072-0.001,4.244
		c2.869,2.869,6.685,4.449,10.742,4.449c8.377,0,15.191-6.814,15.191-15.193c0-8.376-6.814-15.189-15.191-15.189
		c-2.047,0-4.036,0.401-5.912,1.194c-1.525,0.645-2.24,2.404-1.597,3.931c0.645,1.527,2.407,2.241,3.931,1.597
		c1.135-0.479,2.338-0.722,3.578-0.722c5.068,0,9.191,4.122,9.191,9.189C81.417,37.577,77.294,41.7,72.226,41.7z"/>
</g>
</svg>
