<?xml version="1.0" encoding="utf-8"?>
<!-- Generator: Adobe Illustrator 16.0.3, SVG Export Plug-In . SVG Version: 6.00 Build 0)  -->
<!DOCTYPE svg PUBLIC "-//W3C//DTD SVG 1.1//EN" "http://www.w3.org/Graphics/SVG/1.1/DTD/svg11.dtd">
<svg version="1.1" id="Layer_1" xmlns="http://www.w3.org/2000/svg" xmlns:xlink="http://www.w3.org/1999/xlink" x="0px" y="0px"
	 width="87.2px" height="76.553px" viewBox="0 0 87.2 76.553" enable-background="new 0 0 87.2 76.553" xml:space="preserve">
<g>
	<path d="M29.424,0H8.809C3.951,0,0,3.95,0,8.807v15.314c0,4.856,3.951,8.808,8.809,8.808h20.615c4.857,0,8.809-3.951,8.809-8.808
		V8.807C38.232,3.95,34.281,0,29.424,0z M30.232,24.121c0,0.445-0.362,0.808-0.809,0.808H8.809C8.362,24.929,8,24.566,8,24.121
		V8.807C8,8.362,8.362,8,8.809,8h20.615c0.446,0,0.809,0.362,0.809,0.807L30.232,24.121L30.232,24.121z"/>
	<path d="M78.392,0H57.776c-4.857,0-8.809,3.95-8.809,8.807v15.314c0,4.856,3.951,8.808,8.809,8.808h20.615
		c4.857,0,8.809-3.951,8.809-8.808V8.807C87.2,3.95,83.249,0,78.392,0z M79.2,24.121c0,0.445-0.361,0.808-0.809,0.808H57.776
		c-0.445,0-0.809-0.362-0.809-0.808V8.807C56.967,8.362,57.331,8,57.776,8h20.615C78.838,8,79.2,8.362,79.2,8.807V24.121z"/>
	<path d="M29.424,43.625H8.809C3.951,43.625,0,47.577,0,52.435v15.313c0,4.855,3.951,8.807,8.809,8.807h20.615
		c4.857,0,8.809-3.951,8.809-8.807V52.435C38.232,47.577,34.281,43.625,29.424,43.625z M30.232,67.747
		c0,0.445-0.362,0.807-0.809,0.807H8.809C8.362,68.553,8,68.192,8,67.747V52.435c0-0.447,0.362-0.81,0.809-0.81h20.615
		c0.446,0,0.809,0.36,0.809,0.81L30.232,67.747L30.232,67.747z"/>
	<path d="M78.392,43.625H57.776c-4.857,0-8.809,3.951-8.809,8.81v15.313c0,4.855,3.951,8.807,8.809,8.807h20.615
		c4.857,0,8.809-3.951,8.809-8.807V52.435C87.2,47.577,83.249,43.625,78.392,43.625z M79.2,67.747c0,0.445-0.361,0.807-0.809,0.807
		H57.776c-0.445,0-0.809-0.361-0.809-0.807V52.435c0-0.447,0.361-0.81,0.809-0.81h20.615c0.445,0,0.809,0.36,0.809,0.81V67.747z"/>
</g>
</svg>
