<?xml version="1.0" encoding="utf-8"?>
<!-- Generator: Adobe Illustrator 16.0.3, SVG Export Plug-In . SVG Version: 6.00 Build 0)  -->
<!DOCTYPE svg PUBLIC "-//W3C//DTD SVG 1.1//EN" "http://www.w3.org/Graphics/SVG/1.1/DTD/svg11.dtd">
<svg version="1.1" id="Layer_1" xmlns="http://www.w3.org/2000/svg" xmlns:xlink="http://www.w3.org/1999/xlink" x="0px" y="0px"
	 width="91.695px" height="76.24px" viewBox="0 0 91.695 76.24" enable-background="new 0 0 91.695 76.24" xml:space="preserve">
<g>
	<path d="M30.069,12.497h55.626c3.313,0,6-2.687,6-6s-2.688-6-6-6H30.069c-3.313,0-6,2.687-6,6S26.756,12.497,30.069,12.497z"/>
	<path d="M85.695,32.118H30.069c-3.313,0-6,2.687-6,6c0,3.313,2.687,6,6,6h55.626c3.313,0,6-2.688,6-6
		C91.695,34.805,89.009,32.118,85.695,32.118z"/>
	<path d="M85.695,63.742H30.069c-3.313,0-6,2.686-6,6c0,3.313,2.687,6,6,6h55.626c3.313,0,6-2.688,6-6
		C91.695,66.427,89.009,63.742,85.695,63.742z"/>
	<path d="M6.5,0C4.78,0,3.11,0.689,1.9,1.899S0,4.79,0,6.5s0.69,3.38,1.9,4.59S4.78,13,6.5,13c1.71,0,3.381-0.7,4.591-1.91
		S13,8.21,13,6.5s-0.699-3.391-1.909-4.601S8.21,0,6.5,0z"/>
	<path d="M6.5,31.619c-1.72,0-3.39,0.69-4.6,1.9s-1.9,2.89-1.9,4.6C0,39.83,0.69,41.5,1.9,42.71c1.21,1.209,2.88,1.908,4.6,1.908
		c1.71,0,3.381-0.699,4.591-1.908C12.301,41.5,13,39.83,13,38.119c0-1.709-0.699-3.389-1.909-4.599S8.21,31.619,6.5,31.619z"/>
	<path d="M6.5,63.24c-1.72,0-3.39,0.698-4.6,1.899C0.69,66.349,0,68.028,0,69.74c0,1.709,0.69,3.391,1.9,4.6
		c1.21,1.211,2.88,1.9,4.6,1.9c1.71,0,3.381-0.689,4.591-1.9c1.21-1.21,1.909-2.891,1.909-4.6c0-1.712-0.699-3.382-1.909-4.601
		C9.881,63.938,8.21,63.24,6.5,63.24z"/>
</g>
</svg>
