<?xml version="1.0" encoding="utf-8"?>
<!-- Generator: Adobe Illustrator 16.0.3, SVG Export Plug-In . SVG Version: 6.00 Build 0)  -->
<!DOCTYPE svg PUBLIC "-//W3C//DTD SVG 1.1//EN" "http://www.w3.org/Graphics/SVG/1.1/DTD/svg11.dtd">
<svg version="1.1" id="Layer_1" xmlns="http://www.w3.org/2000/svg" xmlns:xlink="http://www.w3.org/1999/xlink" x="0px" y="0px"
	 width="98px" height="58.51px" viewBox="0 0 98 58.51" enable-background="new 0 0 98 58.51" xml:space="preserve">
<g>
	<path d="M24.172,25.838H7.815C3.506,25.838,0,22.333,0,18.024V7.813C0,3.505,3.506,0,7.815,0h16.356
		c4.31,0,7.815,3.505,7.815,7.813v10.211C31.987,22.333,28.481,25.838,24.172,25.838z M8,17.838h15.987V8H8V17.838z"/>
	<path d="M90.186,25.838H46.667c-4.31,0-7.815-3.505-7.815-7.813V7.813C38.852,3.505,42.357,0,46.667,0h43.519
		C94.494,0,98,3.505,98,7.813v10.211C98,22.333,94.494,25.838,90.186,25.838z M46.852,17.838H90V8H46.852V17.838z"/>
	<path d="M24.172,58.51H7.815C3.506,58.51,0,55.004,0,50.696V40.487c0-4.31,3.506-7.814,7.815-7.814h16.356
		c4.31,0,7.815,3.506,7.815,7.814v10.209C31.987,55.004,28.481,58.51,24.172,58.51z M8,50.51h15.987v-9.838H8V50.51z"/>
	<path d="M90.186,58.51H46.667c-4.31,0-7.815-3.506-7.815-7.813V40.487c0-4.31,3.506-7.814,7.815-7.814h43.519
		c4.31,0,7.814,3.506,7.814,7.814v10.209C98,55.004,94.494,58.51,90.186,58.51z M46.852,50.51H90v-9.838H46.852V50.51z"/>
</g>
</svg>
