<?xml version="1.0" encoding="utf-8"?>
<!-- Generator: Adobe Illustrator 16.0.3, SVG Export Plug-In . SVG Version: 6.00 Build 0)  -->
<!DOCTYPE svg PUBLIC "-//W3C//DTD SVG 1.1//EN" "http://www.w3.org/Graphics/SVG/1.1/DTD/svg11.dtd">
<svg version="1.1" id="Layer_1" xmlns="http://www.w3.org/2000/svg" xmlns:xlink="http://www.w3.org/1999/xlink" x="0px" y="0px"
	 width="78.5px" height="87.201px" viewBox="0 0 78.5 87.201" enable-background="new 0 0 78.5 87.201" xml:space="preserve">
<path d="M77.328,3.085c-1.561-1.562-4.096-1.562-5.656,0L57.708,17.049V4c0-1.618-0.976-3.076-2.47-3.695
	c-1.495-0.62-3.217-0.278-4.358,0.867L30.203,21.848H19.918c-2.209,0-4,1.791-4,4V58.84L1.172,73.585
	c-1.563,1.563-1.563,4.094,0,5.656c0.78,0.781,1.805,1.172,2.828,1.172s2.048-0.391,2.828-1.172l13.889-13.889h9.486L50.88,86.028
	c0.765,0.767,1.788,1.173,2.829,1.173c0.516,0,1.035-0.101,1.529-0.306c1.494-0.619,2.47-2.078,2.47-3.694V28.362l19.62-19.62
	C78.891,7.18,78.891,4.647,77.328,3.085z M23.918,29.848h7.942c1.061,0,2.078-0.421,2.828-1.171l15.02-15.019V25.05l-25.79,25.791
	V29.848z M49.708,73.544l-15.02-15.02c-0.75-0.75-1.768-1.172-2.828-1.172h-3.144l20.991-20.992L49.708,73.544L49.708,73.544z"/>
</svg>
