<?xml version="1.0" encoding="utf-8"?>
<!-- Generator: Adobe Illustrator 16.0.3, SVG Export Plug-In . SVG Version: 6.00 Build 0)  -->
<!DOCTYPE svg PUBLIC "-//W3C//DTD SVG 1.1//EN" "http://www.w3.org/Graphics/SVG/1.1/DTD/svg11.dtd">
<svg version="1.1" id="Layer_1" xmlns="http://www.w3.org/2000/svg" xmlns:xlink="http://www.w3.org/1999/xlink" x="0px" y="0px"
	 width="95.875px" height="87.201px" viewBox="0 0 95.875 87.201" enable-background="new 0 0 95.875 87.201" xml:space="preserve">
<g>
	<path d="M39.319,0.305c-1.493-0.62-3.216-0.278-4.358,0.867L14.285,21.848H4c-2.209,0-4,1.791-4,4v35.504c0,2.209,1.791,4,4,4
		h10.285l20.676,20.676c0.765,0.767,1.788,1.173,2.829,1.173c0.515,0,1.035-0.101,1.529-0.306c1.495-0.617,2.47-2.076,2.47-3.694V4
		C41.789,2.383,40.814,0.924,39.319,0.305z M33.789,73.543L18.771,58.524c-0.75-0.75-1.768-1.172-2.828-1.172H8V29.848h7.942
		c1.061,0,2.078-0.421,2.828-1.172l15.019-15.019V73.543z"/>
	<path d="M55.314,26.061c-1.478-1.645-4.007-1.78-5.647-0.305c-1.645,1.476-1.78,4.005-0.306,5.649
		c0.446,0.498,10.821,12.334,0,24.392c-1.476,1.644-1.339,4.173,0.306,5.649c0.764,0.686,1.719,1.021,2.67,1.021
		c1.097,0,2.188-0.447,2.979-1.328C67.767,47.267,60.76,32.127,55.314,26.061z"/>
	<path d="M67.958,14.91c-1.478-1.645-4.006-1.78-5.647-0.305c-1.644,1.476-1.78,4.005-0.306,5.649
		c0.855,0.953,20.716,23.612,0,46.694c-1.476,1.645-1.338,4.174,0.306,5.648c0.765,0.686,1.719,1.022,2.671,1.022
		c1.096,0,2.188-0.448,2.979-1.328C93.413,43.928,68.215,15.197,67.958,14.91z"/>
	<path d="M93.583,29.565C89.517,15.974,81.499,6.937,81.159,6.559c-1.477-1.646-4.007-1.78-5.647-0.305
		c-1.644,1.476-1.78,4.005-0.306,5.649c0.071,0.079,7.154,8.063,10.713,19.956c4.69,15.679,1.086,30.294-10.713,43.441
		c-1.476,1.645-1.338,4.174,0.306,5.649c0.764,0.686,1.719,1.022,2.671,1.022c1.096,0,2.188-0.447,2.979-1.328
		C98.333,61.508,97.395,42.306,93.583,29.565z"/>
</g>
</svg>
