<?xml version="1.0" encoding="utf-8"?>
<!-- Generator: Adobe Illustrator 16.0.3, SVG Export Plug-In . SVG Version: 6.00 Build 0)  -->
<!DOCTYPE svg PUBLIC "-//W3C//DTD SVG 1.1//EN" "http://www.w3.org/Graphics/SVG/1.1/DTD/svg11.dtd">
<svg version="1.1" id="Layer_1" xmlns="http://www.w3.org/2000/svg" xmlns:xlink="http://www.w3.org/1999/xlink" x="0px" y="0px"
	 width="89.02px" height="78.148px" viewBox="0 0 89.02 78.148" enable-background="new 0 0 89.02 78.148" xml:space="preserve">
<g>
	<path d="M88.281,71.833L47.964,2C47.25,0.763,45.929,0,44.5,0c-1.43,0-2.75,0.763-3.464,2l-40.5,70.148
		c-0.716,1.238-0.716,2.765,0,4c0.714,1.238,2.034,2,3.464,2h81c0.008,0,0.015,0,0.02,0c2.21,0,4-1.791,4-4
		C89.02,73.286,88.746,72.487,88.281,71.833z M10.928,70.149L44.5,12l33.571,58.148H10.928z"/>
	<path d="M40.5,29.88v17.843c0,2.209,1.791,4,4,4s4-1.791,4-4V29.88c0-2.209-1.791-4-4-4S40.5,27.671,40.5,29.88z"/>
	<path d="M44.495,55.258c-1.311,0-2.601,0.529-3.53,1.461c-0.93,0.93-1.47,2.219-1.47,3.539c0,1.311,0.54,2.6,1.47,3.529
		c0.931,0.932,2.221,1.471,3.53,1.471c1.319,0,2.609-0.539,3.54-1.471c0.93-0.931,1.47-2.22,1.47-3.529
		c0-1.32-0.54-2.609-1.47-3.539C47.105,55.788,45.815,55.258,44.495,55.258z"/>
</g>
</svg>
