<?xml version="1.0" encoding="utf-8"?>
<!-- Generator: Adobe Illustrator 16.0.3, SVG Export Plug-In . SVG Version: 6.00 Build 0)  -->
<!DOCTYPE svg PUBLIC "-//W3C//DTD SVG 1.1//EN" "http://www.w3.org/Graphics/SVG/1.1/DTD/svg11.dtd">
<svg version="1.1" id="Layer_1" xmlns="http://www.w3.org/2000/svg" xmlns:xlink="http://www.w3.org/1999/xlink" x="0px" y="0px"
	 width="90.799px" height="74.189px" viewBox="0 0 90.799 74.189" enable-background="new 0 0 90.799 74.189" xml:space="preserve">
<path d="M86.799,0H4C1.791,0,0,1.791,0,4V70.19c0,2.209,1.791,4,4,4h82.799c2.209,0,4-1.791,4-4V4C90.799,1.791,89.008,0,86.799,0z
	 M82.799,17.331H53.924V8h28.875V17.331z M22.308,17.331V8h10.808v9.331H22.308z M38.115,8h10.809v9.331H38.115V8z M17.308,8v9.331
	H8V8H17.308z M8,66.19V23.331h74.799V66.19H8z"/>
</svg>
